<svg width="268" height="1050" viewBox="0 0 268 1050" fill="none" xmlns="http://www.w3.org/2000/svg">
<path d="M0 0L31.8129 15.8269L46.8916 26.5225C63.1468 38.0528 78.4051 51.5979 92.4293 66.9473C107.246 83.1643 120.601 101.303 132.264 121.05L154.245 158.269L175.775 208.01C181.23 219.149 186.014 230.768 190.087 242.772L197.626 264.987L211.765 298.902L227.189 348.191L237.151 391.602L245.506 435.465L253.861 468.928L254.192 470.78C263.37 522.15 268 574.595 268 627.196C268 646.734 266.29 666.216 262.899 685.301L260.93 696.382L253.861 731.654L245.506 759.69L244.214 766.684C239.514 792.121 233.057 817.016 224.913 841.096L216.007 867.432C213.185 875.776 209.747 883.782 205.736 891.35C200.35 901.514 193.967 910.819 186.731 919.054L175.775 931.525L154.245 955.491L152.248 957.589C137.54 973.042 121.756 986.867 105.079 998.902C89.0573 1010.63 72.0705 1020.22 54.4047 1027.52L0 1050V0Z" fill="#1CA48C"/>
</svg>
