<svg width="358" height="1076" viewBox="0 0 358 1076" fill="none" xmlns="http://www.w3.org/2000/svg">
<path d="M16.9076 0H358V1033.83L334.397 1060.31C331.635 1063.4 328.785 1066.01 325.869 1068.11L321.991 1070.91C311.713 1078.31 300.728 1077.63 290.62 1068.96C287.52 1066.3 284.534 1062.91 281.705 1058.85L275.94 1050.58C268.187 1039.45 260.98 1026.23 254.458 1011.18L248.284 996.925L230.642 956.017L213.734 913.329L192.783 843.073L178.265 777.264L177.42 774.458C167.843 742.631 156.848 713.45 144.633 687.443C129.1 655.186 112.491 626.094 94.975 600.464L82.7002 582.503L63.6956 550.462C53.3716 533.056 43.9789 512.622 35.7324 489.625L34.1414 485.188C29.0342 470.946 24.4833 455.59 20.5473 439.315C14.8387 415.712 10.467 390.36 7.54947 363.939L5.51332 345.5L4.16012 326.837C1.39194 288.66 0 249.973 0 211.213C0 175.142 1.52209 139.165 4.54258 103.841L5.51332 92.489L16.9076 0Z" fill="#25A38C"/>
</svg>
