<svg width="600" height="282" viewBox="0 0 600 282" fill="none" xmlns="http://www.w3.org/2000/svg">
<path d="M14.6756 37.872V1.104H14.7236L34.3556 28.944L31.3796 28.272L50.9636 1.104H51.0596V37.872H44.0996V16.8L44.5316 20.4L32.5796 37.392H32.4836L20.1956 20.4L21.3956 17.088V37.872H14.6756Z" fill="#F4980D"/>
<path d="M65.1353 16.896L65.7592 22.656L65.6152 21.792C66.2232 20.544 67.0553 19.488 68.1113 18.624C69.1673 17.728 70.2073 17.04 71.2313 16.56C72.2873 16.08 73.0872 15.84 73.6312 15.84L73.2952 22.56C71.7272 22.368 70.3833 22.624 69.2633 23.328C68.1433 24.032 67.2792 24.96 66.6712 26.112C66.0632 27.264 65.7592 28.448 65.7592 29.664V37.872H59.0872V16.896H65.1353Z" fill="#F4980D"/>
<path d="M74.1169 34.416C74.1169 33.424 74.4689 32.592 75.1729 31.92C75.9089 31.248 76.7089 30.912 77.5729 30.912C78.3729 30.912 79.1249 31.248 79.8289 31.92C80.5649 32.592 80.9329 33.424 80.9329 34.416C80.9329 35.472 80.5649 36.32 79.8289 36.96C79.1249 37.568 78.3729 37.872 77.5729 37.872C76.7089 37.872 75.9089 37.568 75.1729 36.96C74.4689 36.32 74.1169 35.472 74.1169 34.416Z" fill="#F4980D"/>
<path d="M111.305 11.088C109.961 10.352 108.585 9.744 107.177 9.264C105.801 8.784 104.505 8.544 103.289 8.544C101.785 8.544 100.601 8.848 99.7373 9.456C98.8733 10.064 98.4413 10.976 98.4413 12.192C98.4413 13.024 98.7613 13.776 99.4013 14.448C100.073 15.088 100.921 15.664 101.945 16.176C103.001 16.688 104.089 17.152 105.209 17.568C106.585 18.08 107.913 18.736 109.193 19.536C110.473 20.304 111.529 21.376 112.361 22.752C113.193 24.096 113.609 25.888 113.609 28.128C113.609 29.92 113.145 31.584 112.217 33.12C111.289 34.656 109.929 35.904 108.137 36.864C106.345 37.792 104.137 38.256 101.513 38.256C99.4973 38.256 97.4333 37.952 95.3213 37.344C93.2413 36.736 91.2733 35.776 89.4173 34.464L92.4893 29.04C93.7053 29.936 95.0973 30.672 96.6653 31.248C98.2333 31.824 99.6413 32.112 100.889 32.112C101.721 32.112 102.553 32 103.385 31.776C104.249 31.52 104.953 31.104 105.497 30.528C106.073 29.952 106.361 29.152 106.361 28.128C106.361 27.424 106.121 26.784 105.641 26.208C105.193 25.632 104.569 25.104 103.769 24.624C103.001 24.144 102.153 23.728 101.225 23.376C100.137 22.96 99.0173 22.48 97.8652 21.936C96.7132 21.392 95.6252 20.736 94.6012 19.968C93.6092 19.168 92.7933 18.192 92.1533 17.04C91.5453 15.856 91.2412 14.416 91.2412 12.72C91.2412 10.672 91.6893 8.896 92.5853 7.392C93.5133 5.888 94.8093 4.704 96.4733 3.84C98.1373 2.944 100.057 2.448 102.233 2.352C105.081 2.352 107.385 2.688 109.145 3.36C110.937 4.032 112.537 4.832 113.945 5.76L111.305 11.088Z" fill="#F4980D"/>
<path d="M128.154 38.448C126.202 38.448 124.426 38.064 122.826 37.296C121.258 36.496 120.01 35.28 119.082 33.648C118.154 32.016 117.69 29.936 117.69 27.408C117.69 25.04 118.17 22.992 119.13 21.264C120.09 19.536 121.354 18.208 122.922 17.28C124.49 16.32 126.154 15.84 127.914 15.84C129.994 15.84 131.562 16.192 132.618 16.896C133.706 17.568 134.602 18.32 135.306 19.152L135.018 19.968L135.642 16.896H141.882V37.872H135.162V33.312L135.69 34.752C135.626 34.752 135.434 34.944 135.114 35.328C134.794 35.68 134.314 36.112 133.674 36.624C133.066 37.104 132.298 37.52 131.37 37.872C130.474 38.256 129.402 38.448 128.154 38.448ZM130.074 32.976C131.29 32.976 132.314 32.72 133.146 32.208C133.978 31.664 134.65 30.864 135.162 29.808V24.672C134.778 23.648 134.106 22.832 133.146 22.224C132.218 21.616 131.114 21.312 129.834 21.312C128.874 21.312 127.978 21.568 127.146 22.08C126.346 22.56 125.706 23.232 125.226 24.096C124.746 24.96 124.506 25.952 124.506 27.072C124.506 28.192 124.762 29.2 125.274 30.096C125.786 30.992 126.458 31.696 127.29 32.208C128.154 32.72 129.082 32.976 130.074 32.976Z" fill="#F4980D"/>
<path d="M154.902 16.896L155.43 20.64L155.334 20.304C156.07 18.992 157.11 17.936 158.454 17.136C159.798 16.304 161.446 15.888 163.398 15.888C165.382 15.888 167.03 16.48 168.342 17.664C169.686 18.816 170.374 20.32 170.406 22.176V37.872H163.686V24.672C163.654 23.744 163.398 23.008 162.918 22.464C162.47 21.888 161.702 21.6 160.614 21.6C159.046 21.6 157.798 22.336 156.87 23.808C155.974 25.248 155.526 27.088 155.526 29.328V37.872H148.806V16.896H154.902Z" fill="#F4980D"/>
<path d="M195.114 36C194.186 36.736 193.018 37.328 191.61 37.776C190.234 38.224 188.874 38.448 187.53 38.448C185.13 38.448 183.034 38.016 181.242 37.152C179.482 36.256 178.106 34.992 177.114 33.36C176.154 31.696 175.674 29.696 175.674 27.36C175.674 25.024 176.202 23.04 177.258 21.408C178.314 19.744 179.69 18.48 181.386 17.616C183.114 16.752 184.922 16.32 186.81 16.32C188.698 16.32 190.33 16.576 191.706 17.088C193.114 17.6 194.314 18.272 195.306 19.104L192.042 23.424C191.594 23.072 190.97 22.72 190.17 22.368C189.402 21.984 188.49 21.792 187.434 21.792C186.506 21.792 185.658 22.032 184.89 22.512C184.122 22.992 183.514 23.648 183.066 24.48C182.618 25.312 182.394 26.272 182.394 27.36C182.394 28.384 182.634 29.328 183.114 30.192C183.594 31.056 184.25 31.744 185.082 32.256C185.946 32.736 186.954 32.976 188.106 32.976C188.842 32.976 189.514 32.88 190.122 32.688C190.762 32.464 191.306 32.16 191.754 31.776L195.114 36Z" fill="#F4980D"/>
<path d="M200.275 37.872V0H206.851V21.12L206.803 20.304C207.539 18.992 208.579 17.936 209.923 17.136C211.267 16.304 212.915 15.888 214.867 15.888C216.851 15.888 218.499 16.48 219.811 17.664C221.155 18.816 221.843 20.32 221.875 22.176V37.872H215.155V24.672C215.123 23.744 214.867 23.008 214.387 22.464C213.939 21.888 213.171 21.6 212.083 21.6C210.515 21.6 209.267 22.336 208.339 23.808C207.443 25.248 206.995 27.088 206.995 29.328V37.872H200.275Z" fill="#F4980D"/>
<path d="M227.143 27.12C227.143 24.976 227.639 23.056 228.631 21.36C229.655 19.664 231.079 18.336 232.903 17.376C234.727 16.384 236.823 15.888 239.191 15.888C241.591 15.888 243.671 16.384 245.431 17.376C247.191 18.336 248.535 19.664 249.463 21.36C250.423 23.056 250.903 24.976 250.903 27.12C250.903 29.264 250.423 31.2 249.463 32.928C248.535 34.624 247.191 35.968 245.431 36.96C243.671 37.952 241.559 38.448 239.095 38.448C236.791 38.448 234.727 38 232.903 37.104C231.111 36.208 229.703 34.912 228.679 33.216C227.655 31.52 227.143 29.488 227.143 27.12ZM233.911 27.168C233.911 28.256 234.135 29.248 234.583 30.144C235.031 31.008 235.639 31.696 236.407 32.208C237.175 32.72 238.039 32.976 238.999 32.976C240.567 32.976 241.815 32.432 242.743 31.344C243.671 30.224 244.135 28.832 244.135 27.168C244.135 25.504 243.671 24.128 242.743 23.04C241.815 21.92 240.567 21.36 238.999 21.36C238.039 21.36 237.175 21.616 236.407 22.128C235.639 22.64 235.031 23.328 234.583 24.192C234.135 25.056 233.911 26.048 233.911 27.168Z" fill="#F4980D"/>
<path d="M274.239 2.544C278.623 2.544 281.983 3.632 284.319 5.808C286.655 7.952 287.823 10.832 287.823 14.448C287.823 15.888 287.599 17.344 287.151 18.816C286.735 20.256 286.047 21.568 285.087 22.752C284.159 23.936 282.895 24.896 281.295 25.632C279.727 26.336 277.791 26.688 275.487 26.688H270.495V37.872H263.535V2.544H274.239ZM275.439 19.92C276.495 19.92 277.375 19.744 278.079 19.392C278.783 19.008 279.327 18.544 279.711 18C280.127 17.424 280.415 16.832 280.575 16.224C280.767 15.616 280.863 15.088 280.863 14.64C280.863 14.288 280.799 13.824 280.671 13.248C280.575 12.64 280.351 12.032 279.999 11.424C279.647 10.816 279.103 10.304 278.367 9.888C277.663 9.472 276.703 9.264 275.487 9.264H270.495V19.92H275.439Z" fill="#F4980D"/>
<path d="M301.779 38.448C299.827 38.448 298.051 38.064 296.451 37.296C294.883 36.496 293.635 35.28 292.707 33.648C291.779 32.016 291.315 29.936 291.315 27.408C291.315 25.04 291.795 22.992 292.755 21.264C293.715 19.536 294.979 18.208 296.547 17.28C298.115 16.32 299.779 15.84 301.539 15.84C303.619 15.84 305.187 16.192 306.243 16.896C307.331 17.568 308.227 18.32 308.931 19.152L308.643 19.968L309.267 16.896H315.507V37.872H308.787V33.312L309.315 34.752C309.251 34.752 309.059 34.944 308.739 35.328C308.419 35.68 307.939 36.112 307.299 36.624C306.691 37.104 305.923 37.52 304.995 37.872C304.099 38.256 303.027 38.448 301.779 38.448ZM303.699 32.976C304.915 32.976 305.939 32.72 306.771 32.208C307.603 31.664 308.275 30.864 308.787 29.808V24.672C308.403 23.648 307.731 22.832 306.771 22.224C305.843 21.616 304.739 21.312 303.459 21.312C302.499 21.312 301.603 21.568 300.771 22.08C299.971 22.56 299.331 23.232 298.851 24.096C298.371 24.96 298.131 25.952 298.131 27.072C298.131 28.192 298.387 29.2 298.899 30.096C299.411 30.992 300.083 31.696 300.915 32.208C301.779 32.72 302.707 32.976 303.699 32.976Z" fill="#F4980D"/>
<path d="M328.527 16.896L329.055 20.64L328.959 20.304C329.695 18.992 330.735 17.936 332.079 17.136C333.423 16.304 335.071 15.888 337.023 15.888C339.007 15.888 340.655 16.48 341.967 17.664C343.311 18.816 343.999 20.32 344.031 22.176V37.872H337.311V24.672C337.279 23.744 337.023 23.008 336.543 22.464C336.095 21.888 335.327 21.6 334.239 21.6C332.671 21.6 331.423 22.336 330.495 23.808C329.599 25.248 329.151 27.088 329.151 29.328V37.872H322.431V16.896H328.527Z" fill="#F4980D"/>
<path d="M368.739 36C367.811 36.736 366.643 37.328 365.235 37.776C363.859 38.224 362.499 38.448 361.155 38.448C358.755 38.448 356.659 38.016 354.867 37.152C353.107 36.256 351.731 34.992 350.739 33.36C349.779 31.696 349.299 29.696 349.299 27.36C349.299 25.024 349.827 23.04 350.883 21.408C351.939 19.744 353.315 18.48 355.011 17.616C356.739 16.752 358.547 16.32 360.435 16.32C362.323 16.32 363.955 16.576 365.331 17.088C366.739 17.6 367.939 18.272 368.931 19.104L365.667 23.424C365.219 23.072 364.595 22.72 363.795 22.368C363.027 21.984 362.115 21.792 361.059 21.792C360.131 21.792 359.283 22.032 358.515 22.512C357.747 22.992 357.139 23.648 356.691 24.48C356.243 25.312 356.019 26.272 356.019 27.36C356.019 28.384 356.259 29.328 356.739 30.192C357.219 31.056 357.875 31.744 358.707 32.256C359.571 32.736 360.579 32.976 361.731 32.976C362.467 32.976 363.139 32.88 363.747 32.688C364.387 32.464 364.931 32.16 365.379 31.776L368.739 36Z" fill="#F4980D"/>
<path d="M373.9 37.872V0H380.476V21.12L380.428 20.304C381.164 18.992 382.204 17.936 383.548 17.136C384.892 16.304 386.54 15.888 388.492 15.888C390.476 15.888 392.124 16.48 393.436 17.664C394.78 18.816 395.468 20.32 395.5 22.176V37.872H388.78V24.672C388.748 23.744 388.492 23.008 388.012 22.464C387.564 21.888 386.796 21.6 385.708 21.6C384.14 21.6 382.892 22.336 381.964 23.808C381.068 25.248 380.62 27.088 380.62 29.328V37.872H373.9Z" fill="#F4980D"/>
<path d="M400.768 27.12C400.768 24.976 401.264 23.056 402.256 21.36C403.28 19.664 404.704 18.336 406.528 17.376C408.352 16.384 410.448 15.888 412.816 15.888C415.216 15.888 417.296 16.384 419.056 17.376C420.816 18.336 422.16 19.664 423.088 21.36C424.048 23.056 424.528 24.976 424.528 27.12C424.528 29.264 424.048 31.2 423.088 32.928C422.16 34.624 420.816 35.968 419.056 36.96C417.296 37.952 415.184 38.448 412.72 38.448C410.416 38.448 408.352 38 406.528 37.104C404.736 36.208 403.328 34.912 402.304 33.216C401.28 31.52 400.768 29.488 400.768 27.12ZM407.536 27.168C407.536 28.256 407.76 29.248 408.208 30.144C408.656 31.008 409.264 31.696 410.032 32.208C410.8 32.72 411.664 32.976 412.624 32.976C414.192 32.976 415.44 32.432 416.368 31.344C417.296 30.224 417.76 28.832 417.76 27.168C417.76 25.504 417.296 24.128 416.368 23.04C415.44 21.92 414.192 21.36 412.624 21.36C411.664 21.36 410.8 21.616 410.032 22.128C409.264 22.64 408.656 23.328 408.208 24.192C407.76 25.056 407.536 26.048 407.536 27.168Z" fill="#F4980D"/>
<path d="M434.76 2.544H458.568V9.264H449.976V37.872H443.016V9.264H434.76V2.544Z" fill="#F4980D"/>
<path d="M469.673 38.448C467.113 38.448 464.937 37.968 463.145 37.008C461.385 36.048 460.041 34.72 459.113 33.024C458.185 31.328 457.721 29.376 457.721 27.168C457.721 25.056 458.265 23.152 459.353 21.456C460.441 19.76 461.897 18.416 463.721 17.424C465.545 16.4 467.577 15.888 469.817 15.888C472.825 15.888 475.289 16.768 477.209 18.528C479.161 20.256 480.425 22.768 481.001 26.064L464.681 31.248L463.193 27.6L475.001 23.616L473.609 24.24C473.353 23.408 472.889 22.688 472.217 22.08C471.577 21.44 470.601 21.12 469.289 21.12C467.785 21.12 466.585 21.632 465.689 22.656C464.793 23.68 464.345 25.056 464.345 26.784C464.345 28.736 464.873 30.224 465.929 31.248C466.985 32.24 468.281 32.736 469.817 32.736C470.553 32.736 471.257 32.608 471.929 32.352C472.633 32.096 473.321 31.76 473.993 31.344L476.969 36.336C475.849 36.976 474.633 37.488 473.321 37.872C472.041 38.256 470.825 38.448 469.673 38.448Z" fill="#F4980D"/>
<path d="M494.236 38.448C492.444 38.448 490.78 38.016 489.244 37.152C487.74 36.288 486.524 35.04 485.596 33.408C484.7 31.744 484.252 29.728 484.252 27.36C484.252 24.96 484.764 22.912 485.788 21.216C486.812 19.488 488.14 18.16 489.772 17.232C491.436 16.304 493.228 15.84 495.148 15.84C496.94 15.84 498.428 16.144 499.612 16.752C500.796 17.328 501.836 18.096 502.732 19.056L502.204 20.496V16.416H508.924V47.952H502.252V33.792L502.348 35.952C501.516 36.656 500.396 37.248 498.988 37.728C497.612 38.208 496.028 38.448 494.236 38.448ZM496.636 33.168C497.98 33.168 499.148 32.864 500.14 32.256C501.132 31.648 501.82 30.832 502.204 29.808V24.672C501.628 23.616 500.892 22.832 499.996 22.32C499.1 21.776 497.98 21.504 496.636 21.504C495.644 21.504 494.716 21.76 493.852 22.272C493.02 22.784 492.348 23.488 491.836 24.384C491.324 25.28 491.068 26.288 491.068 27.408C491.068 28.528 491.324 29.52 491.836 30.384C492.348 31.248 493.02 31.936 493.852 32.448C494.716 32.928 495.644 33.168 496.636 33.168Z" fill="#F4980D"/>
<path d="M522.605 38.88C520.717 38.88 519.133 38.304 517.853 37.152C516.573 35.968 515.901 34.448 515.837 32.592V16.896H522.557V30.096C522.621 31.024 522.861 31.776 523.277 32.352C523.693 32.896 524.397 33.168 525.389 33.168C526.381 33.168 527.229 32.832 527.933 32.16C528.669 31.488 529.229 30.576 529.613 29.424C530.029 28.24 530.237 26.912 530.237 25.44V16.896H536.957V37.872H530.861L530.333 34.032L530.429 34.464C529.725 35.776 528.717 36.848 527.405 37.68C526.093 38.48 524.493 38.88 522.605 38.88Z" fill="#F4980D"/>
<path d="M543.869 16.896H550.589V37.872H543.869V16.896ZM543.724 9.456C543.724 8.464 544.109 7.648 544.877 7.008C545.677 6.368 546.524 6.048 547.42 6.048C548.316 6.048 549.133 6.368 549.869 7.008C550.637 7.648 551.021 8.464 551.021 9.456C551.021 10.448 550.637 11.264 549.869 11.904C549.133 12.512 548.316 12.816 547.42 12.816C546.524 12.816 545.677 12.512 544.877 11.904C544.109 11.264 543.724 10.448 543.724 9.456Z" fill="#F4980D"/>
<path d="M557.509 0H564.229V37.872H557.509V0Z" fill="#F4980D"/>
<path d="M579.982 38.448C578.03 38.448 576.254 38.064 574.654 37.296C573.086 36.496 571.838 35.28 570.91 33.648C569.982 32.016 569.518 29.936 569.518 27.408C569.518 25.04 569.998 22.992 570.958 21.264C571.918 19.536 573.182 18.208 574.75 17.28C576.318 16.32 577.982 15.84 579.742 15.84C581.822 15.84 583.39 16.192 584.446 16.896C585.534 17.568 586.43 18.32 587.134 19.152L586.846 19.968L587.47 16.896H593.71V37.872H586.99V33.312L587.518 34.752C587.454 34.752 587.262 34.944 586.942 35.328C586.622 35.68 586.142 36.112 585.502 36.624C584.894 37.104 584.126 37.52 583.198 37.872C582.302 38.256 581.23 38.448 579.982 38.448ZM581.902 32.976C583.118 32.976 584.142 32.72 584.974 32.208C585.806 31.664 586.478 30.864 586.99 29.808V24.672C586.606 23.648 585.934 22.832 584.974 22.224C584.046 21.616 582.942 21.312 581.662 21.312C580.702 21.312 579.806 21.568 578.974 22.08C578.174 22.56 577.534 23.232 577.054 24.096C576.574 24.96 576.334 25.952 576.334 27.072C576.334 28.192 576.59 29.2 577.102 30.096C577.614 30.992 578.286 31.696 579.118 32.208C579.982 32.72 580.91 32.976 581.902 32.976Z" fill="#F4980D"/>
<path d="M0 168.048H9.552V199.872H2.544V174.768H0V168.048Z" fill="#F4980D"/>
<path d="M29.172 199.92C26.74 199.92 24.5 199.344 22.452 198.192C20.436 197.04 18.82 195.264 17.604 192.864C16.388 190.464 15.78 187.44 15.78 183.792C15.78 179.696 16.356 176.48 17.508 174.144C18.692 171.776 20.292 170.096 22.308 169.104C24.324 168.112 26.612 167.632 29.172 167.664C31.636 167.632 33.876 168.208 35.892 169.392C37.908 170.544 39.524 172.32 40.74 174.72C41.956 177.088 42.564 180.112 42.564 183.792C42.564 187.6 41.94 190.704 40.692 193.104C39.476 195.472 37.86 197.2 35.844 198.288C33.828 199.376 31.604 199.92 29.172 199.92ZM29.124 193.248C30.724 193.248 31.972 192.832 32.868 192C33.764 191.136 34.388 189.968 34.74 188.496C35.124 187.024 35.316 185.392 35.316 183.6C35.316 181.84 35.124 180.272 34.74 178.896C34.388 177.52 33.764 176.432 32.868 175.632C31.972 174.8 30.724 174.384 29.124 174.384C27.556 174.384 26.324 174.8 25.428 175.632C24.532 176.464 23.908 177.584 23.556 178.992C23.204 180.4 23.028 181.984 23.028 183.744C23.028 185.504 23.204 187.104 23.556 188.544C23.908 189.984 24.532 191.136 25.428 192C26.324 192.832 27.556 193.248 29.124 193.248Z" fill="#F4980D"/>
<path d="M59.3126 199.92C56.8806 199.92 54.6406 199.344 52.5926 198.192C50.5766 197.04 48.9606 195.264 47.7446 192.864C46.5286 190.464 45.9206 187.44 45.9206 183.792C45.9206 179.696 46.4966 176.48 47.6486 174.144C48.8326 171.776 50.4326 170.096 52.4486 169.104C54.4646 168.112 56.7526 167.632 59.3126 167.664C61.7766 167.632 64.0166 168.208 66.0326 169.392C68.0486 170.544 69.6646 172.32 70.8806 174.72C72.0966 177.088 72.7046 180.112 72.7046 183.792C72.7046 187.6 72.0806 190.704 70.8326 193.104C69.6166 195.472 68.0006 197.2 65.9846 198.288C63.9686 199.376 61.7446 199.92 59.3126 199.92ZM59.2646 193.248C60.8646 193.248 62.1126 192.832 63.0086 192C63.9046 191.136 64.5286 189.968 64.8806 188.496C65.2646 187.024 65.4566 185.392 65.4566 183.6C65.4566 181.84 65.2646 180.272 64.8806 178.896C64.5286 177.52 63.9046 176.432 63.0086 175.632C62.1126 174.8 60.8646 174.384 59.2646 174.384C57.6966 174.384 56.4646 174.8 55.5686 175.632C54.6726 176.464 54.0486 177.584 53.6966 178.992C53.3446 180.4 53.1686 181.984 53.1686 183.744C53.1686 185.504 53.3446 187.104 53.6966 188.544C54.0486 189.984 54.6726 191.136 55.5686 192C56.4646 192.832 57.6966 193.248 59.2646 193.248Z" fill="#F4980D"/>
<path d="M83.7893 185.76C82.0293 185.76 80.5732 185.36 79.4212 184.56C78.2692 183.76 77.4213 182.672 76.8773 181.296C76.3333 179.92 76.0612 178.368 76.0612 176.64C76.0612 174.912 76.3333 173.376 76.8773 172.032C77.4213 170.656 78.2692 169.568 79.4212 168.768C80.5732 167.968 82.0293 167.568 83.7893 167.568C85.5493 167.568 86.9893 167.968 88.1093 168.768C89.2613 169.568 90.1093 170.656 90.6533 172.032C91.2293 173.376 91.5173 174.912 91.5173 176.64C91.5173 178.368 91.2293 179.92 90.6533 181.296C90.1093 182.672 89.2613 183.76 88.1093 184.56C86.9893 185.36 85.5493 185.76 83.7893 185.76ZM81.9173 176.64C81.9173 177.952 82.0452 179.024 82.3012 179.856C82.5572 180.656 83.0533 181.056 83.7893 181.056C84.5253 181.056 85.0052 180.656 85.2292 179.856C85.4852 179.024 85.6133 177.952 85.6133 176.64C85.6133 175.136 85.4852 174.048 85.2292 173.376C85.0052 172.672 84.5253 172.32 83.7893 172.32C83.0533 172.32 82.5572 172.672 82.3012 173.376C82.0452 174.048 81.9173 175.136 81.9173 176.64ZM103.853 201.216C102.093 201.216 100.637 200.816 99.4853 200.016C98.3333 199.216 97.4853 198.128 96.9413 196.752C96.3973 195.376 96.1253 193.824 96.1253 192.096C96.1253 190.368 96.3973 188.832 96.9413 187.488C97.4853 186.112 98.3333 185.024 99.4853 184.224C100.637 183.424 102.093 183.024 103.853 183.024C105.613 183.024 107.053 183.424 108.173 184.224C109.325 185.024 110.173 186.112 110.717 187.488C111.293 188.832 111.581 190.368 111.581 192.096C111.581 193.824 111.293 195.376 110.717 196.752C110.173 198.128 109.325 199.216 108.173 200.016C107.053 200.816 105.613 201.216 103.853 201.216ZM101.981 192.096C101.981 193.408 102.109 194.48 102.365 195.312C102.621 196.112 103.117 196.512 103.853 196.512C104.589 196.512 105.069 196.112 105.293 195.312C105.549 194.48 105.677 193.408 105.677 192.096C105.677 190.592 105.549 189.504 105.293 188.832C105.069 188.128 104.589 187.776 103.853 187.776C103.117 187.776 102.621 188.128 102.365 188.832C102.109 189.504 101.981 190.592 101.981 192.096ZM109.325 167.568L85.9973 199.968L79.4212 199.872L102.653 167.568H109.325Z" fill="#F4980D"/>
<path d="M121.635 164.544H145.443V171.264H136.851V199.872H129.891V171.264H121.635V164.544Z" fill="#F4980D"/>
<path d="M156.548 200.448C153.988 200.448 151.812 199.968 150.02 199.008C148.26 198.048 146.916 196.72 145.988 195.024C145.06 193.328 144.596 191.376 144.596 189.168C144.596 187.056 145.14 185.152 146.228 183.456C147.316 181.76 148.772 180.416 150.596 179.424C152.42 178.4 154.452 177.888 156.692 177.888C159.7 177.888 162.164 178.768 164.084 180.528C166.036 182.256 167.3 184.768 167.876 188.064L151.556 193.248L150.068 189.6L161.876 185.616L160.484 186.24C160.228 185.408 159.764 184.688 159.092 184.08C158.452 183.44 157.476 183.12 156.164 183.12C154.66 183.12 153.46 183.632 152.564 184.656C151.668 185.68 151.22 187.056 151.22 188.784C151.22 190.736 151.748 192.224 152.804 193.248C153.86 194.24 155.156 194.736 156.692 194.736C157.428 194.736 158.132 194.608 158.804 194.352C159.508 194.096 160.196 193.76 160.868 193.344L163.844 198.336C162.724 198.976 161.508 199.488 160.196 199.872C158.916 200.256 157.7 200.448 156.548 200.448Z" fill="#F4980D"/>
<path d="M181.111 200.448C179.319 200.448 177.655 200.016 176.119 199.152C174.615 198.288 173.399 197.04 172.471 195.408C171.575 193.744 171.127 191.728 171.127 189.36C171.127 186.96 171.639 184.912 172.663 183.216C173.687 181.488 175.015 180.16 176.647 179.232C178.311 178.304 180.103 177.84 182.023 177.84C183.815 177.84 185.303 178.144 186.487 178.752C187.671 179.328 188.711 180.096 189.607 181.056L189.079 182.496V178.416H195.799V209.952H189.127V195.792L189.223 197.952C188.391 198.656 187.271 199.248 185.863 199.728C184.487 200.208 182.903 200.448 181.111 200.448ZM183.511 195.168C184.855 195.168 186.023 194.864 187.015 194.256C188.007 193.648 188.695 192.832 189.079 191.808V186.672C188.503 185.616 187.767 184.832 186.871 184.32C185.975 183.776 184.855 183.504 183.511 183.504C182.519 183.504 181.591 183.76 180.727 184.272C179.895 184.784 179.223 185.488 178.711 186.384C178.199 187.28 177.943 188.288 177.943 189.408C177.943 190.528 178.199 191.52 178.711 192.384C179.223 193.248 179.895 193.936 180.727 194.448C181.591 194.928 182.519 195.168 183.511 195.168Z" fill="#F4980D"/>
<path d="M209.48 200.88C207.592 200.88 206.008 200.304 204.728 199.152C203.448 197.968 202.776 196.448 202.712 194.592V178.896H209.432V192.096C209.496 193.024 209.736 193.776 210.152 194.352C210.568 194.896 211.272 195.168 212.264 195.168C213.256 195.168 214.104 194.832 214.808 194.16C215.544 193.488 216.104 192.576 216.488 191.424C216.904 190.24 217.112 188.912 217.112 187.44V178.896H223.832V199.872H217.736L217.208 196.032L217.304 196.464C216.6 197.776 215.592 198.848 214.28 199.68C212.968 200.48 211.368 200.88 209.48 200.88Z" fill="#F4980D"/>
<path d="M230.743 178.896H237.464V199.872H230.743V178.896ZM230.6 171.456C230.6 170.464 230.983 169.648 231.751 169.008C232.551 168.368 233.4 168.048 234.296 168.048C235.192 168.048 236.007 168.368 236.743 169.008C237.511 169.648 237.896 170.464 237.896 171.456C237.896 172.448 237.511 173.264 236.743 173.904C236.007 174.512 235.192 174.816 234.296 174.816C233.4 174.816 232.551 174.512 231.751 173.904C230.983 173.264 230.6 172.448 230.6 171.456Z" fill="#F4980D"/>
<path d="M244.384 162H251.104V199.872H244.384V162Z" fill="#F4980D"/>
<path d="M266.857 200.448C264.905 200.448 263.129 200.064 261.529 199.296C259.961 198.496 258.713 197.28 257.785 195.648C256.857 194.016 256.393 191.936 256.393 189.408C256.393 187.04 256.873 184.992 257.833 183.264C258.793 181.536 260.057 180.208 261.625 179.28C263.193 178.32 264.857 177.84 266.617 177.84C268.697 177.84 270.265 178.192 271.321 178.896C272.409 179.568 273.305 180.32 274.009 181.152L273.721 181.968L274.345 178.896H280.585V199.872H273.865V195.312L274.393 196.752C274.329 196.752 274.137 196.944 273.817 197.328C273.497 197.68 273.017 198.112 272.377 198.624C271.769 199.104 271.001 199.52 270.073 199.872C269.177 200.256 268.105 200.448 266.857 200.448ZM268.777 194.976C269.993 194.976 271.017 194.72 271.849 194.208C272.681 193.664 273.353 192.864 273.865 191.808V186.672C273.481 185.648 272.809 184.832 271.849 184.224C270.921 183.616 269.817 183.312 268.537 183.312C267.577 183.312 266.681 183.568 265.849 184.08C265.049 184.56 264.409 185.232 263.929 186.096C263.449 186.96 263.209 187.952 263.209 189.072C263.209 190.192 263.465 191.2 263.977 192.096C264.489 192.992 265.161 193.696 265.993 194.208C266.857 194.72 267.785 194.976 268.777 194.976Z" fill="#F4980D"/>
<path d="M302.288 200.448C300.336 200.448 298.592 200 297.056 199.104C295.52 198.176 294.304 196.848 293.408 195.12C292.544 193.392 292.112 191.344 292.112 188.976C292.112 186.608 292.592 184.592 293.552 182.928C294.512 181.264 295.823 180 297.487 179.136C299.151 178.272 301.039 177.84 303.151 177.84C304.495 177.84 305.776 178.048 306.992 178.464C308.24 178.88 309.28 179.52 310.112 180.384V182.496V162H316.784V199.872H310.064V195.792L310.591 197.232C309.503 198.128 308.288 198.896 306.944 199.536C305.6 200.144 304.048 200.448 302.288 200.448ZM304.496 194.784C305.84 194.784 306.959 194.528 307.855 194.016C308.751 193.472 309.488 192.672 310.064 191.616V186.48C309.68 185.456 308.992 184.64 308 184.032C307.008 183.424 305.84 183.12 304.496 183.12C303.504 183.12 302.575 183.376 301.711 183.888C300.879 184.368 300.207 185.04 299.695 185.904C299.183 186.768 298.927 187.76 298.927 188.88C298.927 190 299.183 191.008 299.695 191.904C300.207 192.8 300.879 193.504 301.711 194.016C302.575 194.528 303.504 194.784 304.496 194.784Z" fill="#F4980D"/>
<path d="M334.017 200.448C331.457 200.448 329.281 199.968 327.489 199.008C325.729 198.048 324.385 196.72 323.457 195.024C322.529 193.328 322.065 191.376 322.065 189.168C322.065 187.056 322.609 185.152 323.697 183.456C324.785 181.76 326.241 180.416 328.065 179.424C329.889 178.4 331.921 177.888 334.161 177.888C337.169 177.888 339.633 178.768 341.553 180.528C343.505 182.256 344.769 184.768 345.345 188.064L329.025 193.248L327.537 189.6L339.345 185.616L337.953 186.24C337.697 185.408 337.233 184.688 336.561 184.08C335.921 183.44 334.945 183.12 333.633 183.12C332.129 183.12 330.929 183.632 330.033 184.656C329.137 185.68 328.689 187.056 328.689 188.784C328.689 190.736 329.217 192.224 330.273 193.248C331.329 194.24 332.625 194.736 334.161 194.736C334.897 194.736 335.601 194.608 336.273 194.352C336.977 194.096 337.665 193.76 338.337 193.344L341.313 198.336C340.193 198.976 338.977 199.488 337.665 199.872C336.385 200.256 335.169 200.448 334.017 200.448Z" fill="#F4980D"/>
<path d="M353.582 199.872L369.518 163.152H369.902L385.838 199.872H377.774L367.598 174.048L372.638 170.592L360.446 199.872H353.582ZM364.478 187.104H375.086L377.534 192.96H362.318L364.478 187.104Z" fill="#F4980D"/>
<path d="M400.029 210.432C398.141 210.432 396.541 210.208 395.229 209.76C393.949 209.312 392.861 208.768 391.965 208.128C391.069 207.488 390.269 206.88 389.565 206.304L393.501 201.696C394.237 202.368 395.085 203.008 396.045 203.616C397.037 204.256 398.333 204.576 399.933 204.576C401.533 204.576 402.925 204.16 404.109 203.328C405.325 202.528 405.933 201.344 405.933 199.776V195.168L406.173 196.368C405.661 197.456 404.733 198.416 403.389 199.248C402.045 200.048 400.285 200.448 398.109 200.448C396.221 200.448 394.461 199.968 392.829 199.008C391.229 198.016 389.949 196.688 388.989 195.024C388.029 193.328 387.549 191.408 387.549 189.264C387.549 187.056 388.061 185.104 389.085 183.408C390.109 181.68 391.437 180.32 393.069 179.328C394.701 178.336 396.429 177.84 398.253 177.84C400.077 177.84 401.645 178.112 402.957 178.656C404.301 179.168 405.309 179.808 405.981 180.576L405.741 181.2L406.461 178.896H412.653V199.872C412.653 201.92 412.077 203.728 410.925 205.296C409.773 206.896 408.237 208.144 406.317 209.04C404.429 209.968 402.333 210.432 400.029 210.432ZM394.317 189.072C394.317 190.192 394.573 191.2 395.085 192.096C395.597 192.992 396.285 193.696 397.149 194.208C398.045 194.72 399.037 194.976 400.125 194.976C401.501 194.976 402.653 194.72 403.581 194.208C404.541 193.664 405.325 192.864 405.933 191.808V186.672C405.485 185.648 404.749 184.832 403.725 184.224C402.701 183.616 401.501 183.312 400.125 183.312C399.037 183.312 398.045 183.568 397.149 184.08C396.285 184.56 395.597 185.232 395.085 186.096C394.573 186.96 394.317 187.952 394.317 189.072Z" fill="#F4980D"/>
<path d="M428.388 200.448C426.436 200.448 424.66 200.064 423.06 199.296C421.492 198.496 420.244 197.28 419.316 195.648C418.388 194.016 417.924 191.936 417.924 189.408C417.924 187.04 418.404 184.992 419.364 183.264C420.324 181.536 421.588 180.208 423.156 179.28C424.724 178.32 426.388 177.84 428.148 177.84C430.228 177.84 431.796 178.192 432.852 178.896C433.94 179.568 434.836 180.32 435.54 181.152L435.252 181.968L435.876 178.896H442.116V199.872H435.396V195.312L435.924 196.752C435.86 196.752 435.668 196.944 435.348 197.328C435.028 197.68 434.548 198.112 433.908 198.624C433.3 199.104 432.532 199.52 431.604 199.872C430.708 200.256 429.636 200.448 428.388 200.448ZM430.308 194.976C431.524 194.976 432.548 194.72 433.38 194.208C434.212 193.664 434.884 192.864 435.396 191.808V186.672C435.012 185.648 434.34 184.832 433.38 184.224C432.452 183.616 431.348 183.312 430.068 183.312C429.108 183.312 428.212 183.568 427.38 184.08C426.58 184.56 425.94 185.232 425.46 186.096C424.98 186.96 424.74 187.952 424.74 189.072C424.74 190.192 424.996 191.2 425.508 192.096C426.02 192.992 426.692 193.696 427.524 194.208C428.388 194.72 429.316 194.976 430.308 194.976Z" fill="#F4980D"/>
<path d="M458.64 200.304L446.064 178.896H454.032L461.184 193.392L457.056 193.248L463.248 178.896H470.736L458.832 200.304H458.64Z" fill="#F4980D"/>
<path d="M484.298 200.448C481.738 200.448 479.562 199.968 477.77 199.008C476.01 198.048 474.666 196.72 473.738 195.024C472.81 193.328 472.346 191.376 472.346 189.168C472.346 187.056 472.89 185.152 473.978 183.456C475.066 181.76 476.522 180.416 478.346 179.424C480.17 178.4 482.202 177.888 484.442 177.888C487.45 177.888 489.914 178.768 491.834 180.528C493.786 182.256 495.05 184.768 495.626 188.064L479.306 193.248L477.818 189.6L489.626 185.616L488.234 186.24C487.978 185.408 487.514 184.688 486.842 184.08C486.202 183.44 485.226 183.12 483.914 183.12C482.41 183.12 481.21 183.632 480.314 184.656C479.418 185.68 478.97 187.056 478.97 188.784C478.97 190.736 479.498 192.224 480.554 193.248C481.61 194.24 482.906 194.736 484.442 194.736C485.178 194.736 485.882 194.608 486.554 194.352C487.258 194.096 487.946 193.76 488.618 193.344L491.594 198.336C490.474 198.976 489.258 199.488 487.946 199.872C486.666 200.256 485.45 200.448 484.298 200.448Z" fill="#F4980D"/>
<path d="M503.863 199.872L519.799 163.152H520.183L536.12 199.872H528.055L517.88 174.048L522.919 170.592L510.728 199.872H503.863ZM514.76 187.104H525.367L527.815 192.96H512.599L514.76 187.104Z" fill="#F4980D"/>
<path d="M543.429 184.368C542.277 184.368 541.269 183.952 540.405 183.12C539.541 182.288 539.109 181.168 539.109 179.76V176.88H544.149V177.552C544.149 178.224 544.261 178.624 544.485 178.752C544.741 178.848 545.173 178.896 545.781 178.896H559.077L547.461 195.792L546.213 194.4H558.933V199.872H537.669L549.621 182.448L550.629 184.368H543.429Z" fill="#F4980D"/>
<path d="M572.011 200.88C570.123 200.88 568.54 200.304 567.26 199.152C565.98 197.968 565.308 196.448 565.244 194.592V178.896H571.964V192.096C572.028 193.024 572.267 193.776 572.683 194.352C573.099 194.896 573.803 195.168 574.795 195.168C575.787 195.168 576.635 194.832 577.339 194.16C578.075 193.488 578.636 192.576 579.02 191.424C579.436 190.24 579.643 188.912 579.643 187.44V178.896H586.364V199.872H580.268L579.74 196.032L579.836 196.464C579.132 197.776 578.124 198.848 576.812 199.68C575.5 200.48 573.899 200.88 572.011 200.88Z" fill="#F4980D"/>
<path d="M593.275 162H599.995V199.872H593.275V162Z" fill="#F4980D"/>
<path d="M98.6687 245.544C103.053 245.544 106.413 246.632 108.749 248.808C111.085 250.952 112.253 253.832 112.253 257.448C112.253 258.888 112.029 260.344 111.581 261.816C111.165 263.256 110.477 264.568 109.517 265.752C108.589 266.936 107.325 267.896 105.725 268.632C104.157 269.336 102.221 269.688 99.9167 269.688H94.9247V280.872H87.9647V245.544H98.6687ZM99.8687 262.92C100.925 262.92 101.805 262.744 102.509 262.392C103.213 262.008 103.757 261.544 104.141 261C104.557 260.424 104.845 259.832 105.005 259.224C105.197 258.616 105.293 258.088 105.293 257.64C105.293 257.288 105.229 256.824 105.101 256.248C105.005 255.64 104.781 255.032 104.429 254.424C104.077 253.816 103.533 253.304 102.797 252.888C102.093 252.472 101.133 252.264 99.9167 252.264H94.9247V262.92H99.8687Z" fill="#F4980D"/>
<path d="M123.424 259.896L124.048 265.656L123.904 264.792C124.512 263.544 125.344 262.488 126.4 261.624C127.456 260.728 128.496 260.04 129.52 259.56C130.576 259.08 131.376 258.84 131.92 258.84L131.584 265.56C130.016 265.368 128.672 265.624 127.552 266.328C126.432 267.032 125.568 267.96 124.96 269.112C124.352 270.264 124.048 271.448 124.048 272.664V280.872H117.376V259.896H123.424Z" fill="#F4980D"/>
<path d="M134.494 270.12C134.494 267.976 134.99 266.056 135.982 264.36C137.006 262.664 138.43 261.336 140.254 260.376C142.078 259.384 144.174 258.888 146.542 258.888C148.942 258.888 151.022 259.384 152.782 260.376C154.542 261.336 155.886 262.664 156.814 264.36C157.774 266.056 158.254 267.976 158.254 270.12C158.254 272.264 157.774 274.2 156.814 275.928C155.886 277.624 154.542 278.968 152.782 279.96C151.022 280.952 148.91 281.448 146.446 281.448C144.142 281.448 142.078 281 140.254 280.104C138.462 279.208 137.054 277.912 136.03 276.216C135.006 274.52 134.494 272.488 134.494 270.12ZM141.262 270.168C141.262 271.256 141.486 272.248 141.934 273.144C142.382 274.008 142.99 274.696 143.758 275.208C144.526 275.72 145.39 275.976 146.35 275.976C147.918 275.976 149.166 275.432 150.094 274.344C151.022 273.224 151.486 271.832 151.486 270.168C151.486 268.504 151.022 267.128 150.094 266.04C149.166 264.92 147.918 264.36 146.35 264.36C145.39 264.36 144.526 264.616 143.758 265.128C142.99 265.64 142.382 266.328 141.934 267.192C141.486 268.056 141.262 269.048 141.262 270.168Z" fill="#F4980D"/>
<path d="M172.092 281.448C170.14 281.448 168.396 281 166.86 280.104C165.324 279.176 164.108 277.848 163.212 276.12C162.348 274.392 161.916 272.344 161.916 269.976C161.916 267.608 162.396 265.592 163.356 263.928C164.316 262.264 165.628 261 167.292 260.136C168.956 259.272 170.844 258.84 172.956 258.84C174.3 258.84 175.58 259.048 176.796 259.464C178.044 259.88 179.084 260.52 179.916 261.384V263.496V243H186.588V280.872H179.868V276.792L180.396 278.232C179.308 279.128 178.092 279.896 176.748 280.536C175.404 281.144 173.852 281.448 172.092 281.448ZM174.3 275.784C175.644 275.784 176.764 275.528 177.66 275.016C178.556 274.472 179.292 273.672 179.868 272.616V267.48C179.484 266.456 178.796 265.64 177.804 265.032C176.812 264.424 175.644 264.12 174.3 264.12C173.308 264.12 172.38 264.376 171.516 264.888C170.684 265.368 170.012 266.04 169.5 266.904C168.988 267.768 168.732 268.76 168.732 269.88C168.732 271 168.988 272.008 169.5 272.904C170.012 273.8 170.684 274.504 171.516 275.016C172.38 275.528 173.308 275.784 174.3 275.784Z" fill="#F4980D"/>
<path d="M200.269 281.88C198.381 281.88 196.797 281.304 195.517 280.152C194.237 278.968 193.565 277.448 193.501 275.592V259.896H200.221V273.096C200.285 274.024 200.525 274.776 200.941 275.352C201.357 275.896 202.061 276.168 203.053 276.168C204.045 276.168 204.893 275.832 205.597 275.16C206.333 274.488 206.893 273.576 207.277 272.424C207.693 271.24 207.901 269.912 207.901 268.44V259.896H214.621V280.872H208.525L207.997 277.032L208.093 277.464C207.389 278.776 206.381 279.848 205.069 280.68C203.757 281.48 202.157 281.88 200.269 281.88Z" fill="#F4980D"/>
<path d="M239.341 279C238.413 279.736 237.245 280.328 235.837 280.776C234.461 281.224 233.101 281.448 231.757 281.448C229.357 281.448 227.261 281.016 225.469 280.152C223.709 279.256 222.333 277.992 221.341 276.36C220.381 274.696 219.901 272.696 219.901 270.36C219.901 268.024 220.429 266.04 221.485 264.408C222.541 262.744 223.917 261.48 225.613 260.616C227.341 259.752 229.149 259.32 231.037 259.32C232.925 259.32 234.557 259.576 235.933 260.088C237.341 260.6 238.541 261.272 239.533 262.104L236.269 266.424C235.821 266.072 235.197 265.72 234.397 265.368C233.629 264.984 232.717 264.792 231.661 264.792C230.733 264.792 229.885 265.032 229.117 265.512C228.349 265.992 227.741 266.648 227.293 267.48C226.845 268.312 226.621 269.272 226.621 270.36C226.621 271.384 226.861 272.328 227.341 273.192C227.821 274.056 228.477 274.744 229.309 275.256C230.173 275.736 231.181 275.976 232.333 275.976C233.069 275.976 233.741 275.88 234.349 275.688C234.989 275.464 235.533 275.16 235.981 274.776L239.341 279Z" fill="#F4980D"/>
<path d="M246.469 250.68H253.189V259.8H258.277V265.032H253.189V280.872H246.469V265.032H243.205V259.8H246.469V250.68Z" fill="#F4980D"/>
<path d="M261.76 270.12C261.76 267.976 262.256 266.056 263.248 264.36C264.272 262.664 265.696 261.336 267.52 260.376C269.344 259.384 271.44 258.888 273.808 258.888C276.208 258.888 278.288 259.384 280.048 260.376C281.808 261.336 283.152 262.664 284.08 264.36C285.04 266.056 285.52 267.976 285.52 270.12C285.52 272.264 285.04 274.2 284.08 275.928C283.152 277.624 281.808 278.968 280.048 279.96C278.288 280.952 276.176 281.448 273.712 281.448C271.408 281.448 269.344 281 267.52 280.104C265.728 279.208 264.32 277.912 263.296 276.216C262.272 274.52 261.76 272.488 261.76 270.12ZM268.528 270.168C268.528 271.256 268.752 272.248 269.2 273.144C269.648 274.008 270.256 274.696 271.024 275.208C271.792 275.72 272.656 275.976 273.616 275.976C275.184 275.976 276.432 275.432 277.36 274.344C278.288 273.224 278.752 271.832 278.752 270.168C278.752 268.504 278.288 267.128 277.36 266.04C276.432 264.92 275.184 264.36 273.616 264.36C272.656 264.36 271.792 264.616 271.024 265.128C270.256 265.64 269.648 266.328 269.2 267.192C268.752 268.056 268.528 269.048 268.528 270.168Z" fill="#F4980D"/>
<path d="M305.592 281.448C303.64 281.448 301.896 281 300.36 280.104C298.824 279.176 297.608 277.848 296.712 276.12C295.848 274.392 295.416 272.344 295.416 269.976C295.416 267.608 295.896 265.592 296.856 263.928C297.816 262.264 299.128 261 300.792 260.136C302.456 259.272 304.344 258.84 306.456 258.84C307.8 258.84 309.08 259.048 310.296 259.464C311.544 259.88 312.584 260.52 313.416 261.384V263.496V243H320.088V280.872H313.368V276.792L313.896 278.232C312.808 279.128 311.592 279.896 310.248 280.536C308.904 281.144 307.352 281.448 305.592 281.448ZM307.8 275.784C309.144 275.784 310.264 275.528 311.16 275.016C312.056 274.472 312.792 273.672 313.368 272.616V267.48C312.984 266.456 312.296 265.64 311.304 265.032C310.312 264.424 309.144 264.12 307.8 264.12C306.808 264.12 305.88 264.376 305.016 264.888C304.184 265.368 303.512 266.04 303 266.904C302.488 267.768 302.232 268.76 302.232 269.88C302.232 271 302.488 272.008 303 272.904C303.512 273.8 304.184 274.504 305.016 275.016C305.88 275.528 306.808 275.784 307.8 275.784Z" fill="#F4980D"/>
<path d="M337.321 281.448C334.761 281.448 332.585 280.968 330.793 280.008C329.033 279.048 327.689 277.72 326.761 276.024C325.833 274.328 325.369 272.376 325.369 270.168C325.369 268.056 325.913 266.152 327.001 264.456C328.089 262.76 329.545 261.416 331.369 260.424C333.193 259.4 335.225 258.888 337.465 258.888C340.473 258.888 342.937 259.768 344.857 261.528C346.809 263.256 348.073 265.768 348.649 269.064L332.329 274.248L330.841 270.6L342.649 266.616L341.257 267.24C341.001 266.408 340.537 265.688 339.865 265.08C339.225 264.44 338.249 264.12 336.937 264.12C335.433 264.12 334.233 264.632 333.337 265.656C332.441 266.68 331.993 268.056 331.993 269.784C331.993 271.736 332.521 273.224 333.577 274.248C334.633 275.24 335.929 275.736 337.465 275.736C338.201 275.736 338.905 275.608 339.577 275.352C340.281 275.096 340.969 274.76 341.641 274.344L344.617 279.336C343.497 279.976 342.281 280.488 340.969 280.872C339.689 281.256 338.473 281.448 337.321 281.448Z" fill="#F4980D"/>
<path d="M360.871 280.872V244.104H360.919L380.551 271.944L377.575 271.272L397.159 244.104H397.255V280.872H390.295V259.8L390.727 263.4L378.775 280.392H378.679L366.391 263.4L367.591 260.088V280.872H360.871Z" fill="#F4980D"/>
<path d="M415.603 281.448C413.043 281.448 410.867 280.968 409.075 280.008C407.315 279.048 405.971 277.72 405.043 276.024C404.115 274.328 403.651 272.376 403.651 270.168C403.651 268.056 404.195 266.152 405.283 264.456C406.371 262.76 407.827 261.416 409.651 260.424C411.475 259.4 413.507 258.888 415.747 258.888C418.755 258.888 421.219 259.768 423.139 261.528C425.091 263.256 426.355 265.768 426.931 269.064L410.611 274.248L409.123 270.6L420.931 266.616L419.539 267.24C419.283 266.408 418.819 265.688 418.147 265.08C417.507 264.44 416.531 264.12 415.219 264.12C413.715 264.12 412.515 264.632 411.619 265.656C410.723 266.68 410.275 268.056 410.275 269.784C410.275 271.736 410.803 273.224 411.859 274.248C412.915 275.24 414.211 275.736 415.747 275.736C416.483 275.736 417.187 275.608 417.859 275.352C418.563 275.096 419.251 274.76 419.923 274.344L422.899 279.336C421.779 279.976 420.563 280.488 419.251 280.872C417.971 281.256 416.755 281.448 415.603 281.448ZM422.803 249.912L415.699 256.392H411.619L415.363 249.912H422.803Z" fill="#F4980D"/>
<path d="M441.318 266.568L445.302 259.896H451.974L443.67 271.416L441.318 266.568ZM453.126 280.872H445.014L428.838 259.896H437.094L453.126 280.872ZM440.454 274.152L435.75 280.872H429.078L437.382 269.64L440.454 274.152Z" fill="#F4980D"/>
<path d="M457.079 259.896H463.799V280.872H457.079V259.896ZM456.935 252.456C456.935 251.464 457.319 250.648 458.087 250.008C458.887 249.368 459.735 249.048 460.631 249.048C461.527 249.048 462.343 249.368 463.079 250.008C463.847 250.648 464.231 251.464 464.231 252.456C464.231 253.448 463.847 254.264 463.079 254.904C462.343 255.512 461.527 255.816 460.631 255.816C459.735 255.816 458.887 255.512 458.087 254.904C457.319 254.264 456.935 253.448 456.935 252.456Z" fill="#F4980D"/>
<path d="M488.528 279C487.6 279.736 486.432 280.328 485.024 280.776C483.648 281.224 482.288 281.448 480.944 281.448C478.544 281.448 476.448 281.016 474.656 280.152C472.896 279.256 471.52 277.992 470.528 276.36C469.568 274.696 469.088 272.696 469.088 270.36C469.088 268.024 469.616 266.04 470.672 264.408C471.728 262.744 473.104 261.48 474.8 260.616C476.528 259.752 478.336 259.32 480.224 259.32C482.112 259.32 483.744 259.576 485.12 260.088C486.528 260.6 487.728 261.272 488.72 262.104L485.456 266.424C485.008 266.072 484.384 265.72 483.584 265.368C482.816 264.984 481.904 264.792 480.848 264.792C479.92 264.792 479.072 265.032 478.304 265.512C477.536 265.992 476.928 266.648 476.48 267.48C476.032 268.312 475.808 269.272 475.808 270.36C475.808 271.384 476.048 272.328 476.528 273.192C477.008 274.056 477.664 274.744 478.496 275.256C479.36 275.736 480.368 275.976 481.52 275.976C482.256 275.976 482.928 275.88 483.536 275.688C484.176 275.464 484.72 275.16 485.168 274.776L488.528 279Z" fill="#F4980D"/>
<path d="M492.057 270.12C492.057 267.976 492.553 266.056 493.545 264.36C494.569 262.664 495.993 261.336 497.817 260.376C499.641 259.384 501.737 258.888 504.105 258.888C506.505 258.888 508.585 259.384 510.345 260.376C512.105 261.336 513.449 262.664 514.377 264.36C515.337 266.056 515.817 267.976 515.817 270.12C515.817 272.264 515.337 274.2 514.377 275.928C513.449 277.624 512.105 278.968 510.345 279.96C508.585 280.952 506.473 281.448 504.009 281.448C501.705 281.448 499.641 281 497.817 280.104C496.025 279.208 494.617 277.912 493.593 276.216C492.569 274.52 492.057 272.488 492.057 270.12ZM498.825 270.168C498.825 271.256 499.049 272.248 499.497 273.144C499.945 274.008 500.553 274.696 501.321 275.208C502.089 275.72 502.953 275.976 503.913 275.976C505.481 275.976 506.729 275.432 507.657 274.344C508.585 273.224 509.049 271.832 509.049 270.168C509.049 268.504 508.585 267.128 507.657 266.04C506.729 264.92 505.481 264.36 503.913 264.36C502.953 264.36 502.089 264.616 501.321 265.128C500.553 265.64 499.945 266.328 499.497 267.192C499.049 268.056 498.825 269.048 498.825 270.168Z" fill="#F4980D"/>
</svg>
