<svg width="518" height="118" viewBox="0 0 518 118" fill="none" xmlns="http://www.w3.org/2000/svg">
<path d="M5.29201 29V5.95997L7.81201 8.47997H0.252014V3.79997H11.124V29H5.29201Z" fill="#F4980D"/>
<path d="M26.3017 29.432C24.2377 29.432 22.3897 28.928 20.7577 27.92C19.1257 26.888 17.8417 25.4 16.9057 23.456C15.9697 21.512 15.5017 19.16 15.5017 16.4C15.5017 13.64 15.9697 11.288 16.9057 9.34397C17.8417 7.39997 19.1257 5.92397 20.7577 4.91597C22.3897 3.88397 24.2377 3.36797 26.3017 3.36797C28.3897 3.36797 30.2377 3.88397 31.8457 4.91597C33.4777 5.92397 34.7617 7.39997 35.6977 9.34397C36.6337 11.288 37.1017 13.64 37.1017 16.4C37.1017 19.16 36.6337 21.512 35.6977 23.456C34.7617 25.4 33.4777 26.888 31.8457 27.92C30.2377 28.928 28.3897 29.432 26.3017 29.432ZM26.3017 24.5C27.2857 24.5 28.1377 24.224 28.8577 23.672C29.6017 23.12 30.1777 22.244 30.5857 21.044C31.0177 19.844 31.2337 18.296 31.2337 16.4C31.2337 14.504 31.0177 12.956 30.5857 11.756C30.1777 10.556 29.6017 9.67997 28.8577 9.12797C28.1377 8.57597 27.2857 8.29997 26.3017 8.29997C25.3417 8.29997 24.4897 8.57597 23.7457 9.12797C23.0257 9.67997 22.4497 10.556 22.0177 11.756C21.6097 12.956 21.4057 14.504 21.4057 16.4C21.4057 18.296 21.6097 19.844 22.0177 21.044C22.4497 22.244 23.0257 23.12 23.7457 23.672C24.4897 24.224 25.3417 24.5 26.3017 24.5Z" fill="#F4980D"/>
<path d="M50.7353 29.432C48.6713 29.432 46.8233 28.928 45.1913 27.92C43.5593 26.888 42.2753 25.4 41.3393 23.456C40.4033 21.512 39.9353 19.16 39.9353 16.4C39.9353 13.64 40.4033 11.288 41.3393 9.34397C42.2753 7.39997 43.5593 5.92397 45.1913 4.91597C46.8233 3.88397 48.6713 3.36797 50.7353 3.36797C52.8233 3.36797 54.6713 3.88397 56.2793 4.91597C57.9113 5.92397 59.1953 7.39997 60.1313 9.34397C61.0673 11.288 61.5353 13.64 61.5353 16.4C61.5353 19.16 61.0673 21.512 60.1313 23.456C59.1953 25.4 57.9113 26.888 56.2793 27.92C54.6713 28.928 52.8233 29.432 50.7353 29.432ZM50.7353 24.5C51.7193 24.5 52.5713 24.224 53.2913 23.672C54.0353 23.12 54.6113 22.244 55.0193 21.044C55.4513 19.844 55.6673 18.296 55.6673 16.4C55.6673 14.504 55.4513 12.956 55.0193 11.756C54.6113 10.556 54.0353 9.67997 53.2913 9.12797C52.5713 8.57597 51.7193 8.29997 50.7353 8.29997C49.7753 8.29997 48.9233 8.57597 48.1793 9.12797C47.4593 9.67997 46.8833 10.556 46.4513 11.756C46.0433 12.956 45.8393 14.504 45.8393 16.4C45.8393 18.296 46.0433 19.844 46.4513 21.044C46.8833 22.244 47.4593 23.12 48.1793 23.672C48.9233 24.224 49.7753 24.5 50.7353 24.5Z" fill="#F4980D"/>
<path d="M68.0049 29L85.2129 3.79997H89.4969L72.2889 29H68.0049ZM70.2009 17.408C68.9769 17.408 67.8969 17.132 66.9609 16.58C66.0249 16.004 65.2809 15.2 64.7289 14.168C64.2009 13.112 63.9369 11.876 63.9369 10.46C63.9369 9.04397 64.2009 7.81997 64.7289 6.78797C65.2809 5.75597 66.0249 4.95197 66.9609 4.37597C67.8969 3.79997 68.9769 3.51197 70.2009 3.51197C71.4249 3.51197 72.5049 3.79997 73.4409 4.37597C74.3769 4.95197 75.1089 5.75597 75.6369 6.78797C76.1649 7.81997 76.4289 9.04397 76.4289 10.46C76.4289 11.876 76.1649 13.112 75.6369 14.168C75.1089 15.2 74.3769 16.004 73.4409 16.58C72.5049 17.132 71.4249 17.408 70.2009 17.408ZM70.2009 14.456C70.9929 14.456 71.6289 14.132 72.1089 13.484C72.5889 12.812 72.8289 11.804 72.8289 10.46C72.8289 9.11597 72.5889 8.11997 72.1089 7.47197C71.6289 6.79997 70.9929 6.46397 70.2009 6.46397C69.4329 6.46397 68.7969 6.79997 68.2929 7.47197C67.8129 8.11997 67.5729 9.11597 67.5729 10.46C67.5729 11.78 67.8129 12.776 68.2929 13.448C68.7969 14.12 69.4329 14.456 70.2009 14.456ZM87.3009 29.288C86.1009 29.288 85.0209 29.012 84.0609 28.46C83.1249 27.884 82.3929 27.08 81.8649 26.048C81.3369 24.992 81.0729 23.756 81.0729 22.34C81.0729 20.924 81.3369 19.7 81.8649 18.668C82.3929 17.636 83.1249 16.832 84.0609 16.256C85.0209 15.68 86.1009 15.392 87.3009 15.392C88.5489 15.392 89.6409 15.68 90.5769 16.256C91.5129 16.832 92.2449 17.636 92.7729 18.668C93.3009 19.7 93.5649 20.924 93.5649 22.34C93.5649 23.756 93.3009 24.992 92.7729 26.048C92.2449 27.08 91.5129 27.884 90.5769 28.46C89.6409 29.012 88.5489 29.288 87.3009 29.288ZM87.3009 26.336C88.0929 26.336 88.7289 26.012 89.2089 25.364C89.6889 24.692 89.9289 23.684 89.9289 22.34C89.9289 21.02 89.6889 20.024 89.2089 19.352C88.7289 18.68 88.0929 18.344 87.3009 18.344C86.5329 18.344 85.8969 18.68 85.3929 19.352C84.9129 20 84.6729 20.996 84.6729 22.34C84.6729 23.684 84.9129 24.692 85.3929 25.364C85.8969 26.012 86.5329 26.336 87.3009 26.336Z" fill="#F4980D"/>
<path d="M112.938 29V8.55197H104.874V3.79997H126.834V8.55197H118.77V29H112.938Z" fill="#F4980D"/>
<path d="M137.22 29.288C135.012 29.288 133.068 28.856 131.388 27.992C129.732 27.128 128.448 25.952 127.536 24.464C126.624 22.952 126.168 21.236 126.168 19.316C126.168 17.372 126.612 15.656 127.5 14.168C128.412 12.656 129.648 11.48 131.208 10.64C132.768 9.77597 134.532 9.34397 136.5 9.34397C138.396 9.34397 140.1 9.75197 141.612 10.568C143.148 11.36 144.36 12.512 145.248 14.024C146.136 15.512 146.58 17.3 146.58 19.388C146.58 19.604 146.568 19.856 146.544 20.144C146.52 20.408 146.496 20.66 146.472 20.9H130.74V17.624H143.52L141.36 18.596C141.36 17.588 141.156 16.712 140.748 15.968C140.34 15.224 139.776 14.648 139.056 14.24C138.336 13.808 137.496 13.592 136.536 13.592C135.576 13.592 134.724 13.808 133.98 14.24C133.26 14.648 132.696 15.236 132.288 16.004C131.88 16.748 131.676 17.636 131.676 18.668V19.532C131.676 20.588 131.904 21.524 132.36 22.34C132.84 23.132 133.5 23.744 134.34 24.176C135.204 24.584 136.212 24.788 137.364 24.788C138.396 24.788 139.296 24.632 140.064 24.32C140.856 24.008 141.576 23.54 142.224 22.916L145.212 26.156C144.324 27.164 143.208 27.944 141.864 28.496C140.52 29.024 138.972 29.288 137.22 29.288Z" fill="#F4980D"/>
<path d="M158.563 29.288C156.739 29.288 155.095 28.88 153.631 28.064C152.167 27.248 151.003 26.096 150.139 24.608C149.299 23.12 148.879 21.356 148.879 19.316C148.879 17.3 149.299 15.548 150.139 14.06C151.003 12.572 152.167 11.42 153.631 10.604C155.095 9.76397 156.739 9.34397 158.563 9.34397C160.267 9.34397 161.719 9.70397 162.919 10.424C164.143 11.144 165.079 12.236 165.727 13.7C166.375 15.164 166.699 17.036 166.699 19.316C166.699 21.572 166.363 23.444 165.691 24.932C165.019 26.396 164.071 27.488 162.847 28.208C161.623 28.928 160.195 29.288 158.563 29.288ZM159.535 24.68C160.447 24.68 161.275 24.464 162.019 24.032C162.763 23.6 163.351 22.988 163.783 22.196C164.239 21.38 164.467 20.42 164.467 19.316C164.467 18.188 164.239 17.228 163.783 16.436C163.351 15.644 162.763 15.032 162.019 14.6C161.275 14.168 160.447 13.952 159.535 13.952C158.599 13.952 157.759 14.168 157.015 14.6C156.271 15.032 155.671 15.644 155.215 16.436C154.783 17.228 154.567 18.188 154.567 19.316C154.567 20.42 154.783 21.38 155.215 22.196C155.671 22.988 156.271 23.6 157.015 24.032C157.759 24.464 158.599 24.68 159.535 24.68ZM164.359 35.984V25.076L164.719 19.352L164.611 13.592V9.63197H169.975V35.984H164.359Z" fill="#F4980D"/>
<path d="M183.346 29.288C181.738 29.288 180.298 28.976 179.026 28.352C177.778 27.728 176.806 26.78 176.11 25.508C175.414 24.212 175.066 22.568 175.066 20.576V9.63197H180.682V19.748C180.682 21.356 181.018 22.544 181.69 23.312C182.386 24.056 183.358 24.428 184.606 24.428C185.47 24.428 186.238 24.248 186.91 23.888C187.582 23.504 188.11 22.928 188.494 22.16C188.878 21.368 189.07 20.384 189.07 19.208V9.63197H194.686V29H189.358V23.672L190.33 25.22C189.682 26.564 188.722 27.584 187.45 28.28C186.202 28.952 184.834 29.288 183.346 29.288Z" fill="#F4980D"/>
<path d="M199.889 29V9.63197H205.505V29H199.889ZM202.697 6.93197C201.665 6.93197 200.825 6.63197 200.177 6.03197C199.529 5.43197 199.205 4.68797 199.205 3.79997C199.205 2.91197 199.529 2.16797 200.177 1.56797C200.825 0.967969 201.665 0.667969 202.697 0.667969C203.729 0.667969 204.569 0.955969 205.217 1.53197C205.865 2.08397 206.189 2.80397 206.189 3.69197C206.189 4.62797 205.865 5.40797 205.217 6.03197C204.593 6.63197 203.753 6.93197 202.697 6.93197Z" fill="#F4980D"/>
<path d="M210.717 29V2.28797H216.333V29H210.717Z" fill="#F4980D"/>
<path d="M233.425 29V25.22L233.065 24.392V17.624C233.065 16.424 232.693 15.488 231.949 14.816C231.229 14.144 230.113 13.808 228.601 13.808C227.569 13.808 226.549 13.976 225.541 14.312C224.557 14.624 223.717 15.056 223.021 15.608L221.005 11.684C222.061 10.94 223.333 10.364 224.821 9.95597C226.309 9.54797 227.821 9.34397 229.357 9.34397C232.309 9.34397 234.601 10.04 236.233 11.432C237.865 12.824 238.681 14.996 238.681 17.948V29H233.425ZM227.521 29.288C226.009 29.288 224.713 29.036 223.633 28.532C222.553 28.004 221.725 27.296 221.149 26.408C220.573 25.52 220.285 24.524 220.285 23.42C220.285 22.268 220.561 21.26 221.113 20.396C221.689 19.532 222.589 18.86 223.813 18.38C225.037 17.876 226.633 17.624 228.601 17.624H233.749V20.9H229.213C227.893 20.9 226.981 21.116 226.477 21.548C225.997 21.98 225.757 22.52 225.757 23.168C225.757 23.888 226.033 24.464 226.585 24.896C227.161 25.304 227.941 25.508 228.925 25.508C229.861 25.508 230.701 25.292 231.445 24.86C232.189 24.404 232.729 23.744 233.065 22.88L233.929 25.472C233.521 26.72 232.777 27.668 231.697 28.316C230.617 28.964 229.225 29.288 227.521 29.288Z" fill="#F4980D"/>
<path d="M262.275 29.288C260.451 29.288 258.807 28.88 257.343 28.064C255.879 27.224 254.715 26.06 253.851 24.572C253.011 23.084 252.591 21.332 252.591 19.316C252.591 17.276 253.011 15.512 253.851 14.024C254.715 12.536 255.879 11.384 257.343 10.568C258.807 9.75197 260.451 9.34397 262.275 9.34397C263.907 9.34397 265.335 9.70397 266.559 10.424C267.783 11.144 268.731 12.236 269.403 13.7C270.075 15.164 270.411 17.036 270.411 19.316C270.411 21.572 270.087 23.444 269.439 24.932C268.791 26.396 267.855 27.488 266.631 28.208C265.431 28.928 263.979 29.288 262.275 29.288ZM263.247 24.68C264.159 24.68 264.987 24.464 265.731 24.032C266.475 23.6 267.063 22.988 267.495 22.196C267.951 21.38 268.179 20.42 268.179 19.316C268.179 18.188 267.951 17.228 267.495 16.436C267.063 15.644 266.475 15.032 265.731 14.6C264.987 14.168 264.159 13.952 263.247 13.952C262.311 13.952 261.471 14.168 260.727 14.6C259.983 15.032 259.383 15.644 258.927 16.436C258.495 17.228 258.279 18.188 258.279 19.316C258.279 20.42 258.495 21.38 258.927 22.196C259.383 22.988 259.983 23.6 260.727 24.032C261.471 24.464 262.311 24.68 263.247 24.68ZM268.323 29V25.04L268.431 19.28L268.071 13.556V2.28797H273.687V29H268.323Z" fill="#F4980D"/>
<path d="M288.497 29.288C286.289 29.288 284.345 28.856 282.665 27.992C281.009 27.128 279.725 25.952 278.813 24.464C277.901 22.952 277.445 21.236 277.445 19.316C277.445 17.372 277.889 15.656 278.777 14.168C279.689 12.656 280.925 11.48 282.485 10.64C284.045 9.77597 285.809 9.34397 287.777 9.34397C289.673 9.34397 291.377 9.75197 292.889 10.568C294.425 11.36 295.637 12.512 296.525 14.024C297.413 15.512 297.857 17.3 297.857 19.388C297.857 19.604 297.845 19.856 297.821 20.144C297.797 20.408 297.773 20.66 297.749 20.9H282.017V17.624H294.797L292.637 18.596C292.637 17.588 292.433 16.712 292.025 15.968C291.617 15.224 291.053 14.648 290.333 14.24C289.613 13.808 288.773 13.592 287.813 13.592C286.853 13.592 286.001 13.808 285.257 14.24C284.537 14.648 283.973 15.236 283.565 16.004C283.157 16.748 282.953 17.636 282.953 18.668V19.532C282.953 20.588 283.181 21.524 283.637 22.34C284.117 23.132 284.777 23.744 285.617 24.176C286.481 24.584 287.489 24.788 288.641 24.788C289.673 24.788 290.573 24.632 291.341 24.32C292.133 24.008 292.853 23.54 293.501 22.916L296.489 26.156C295.601 27.164 294.485 27.944 293.141 28.496C291.797 29.024 290.249 29.288 288.497 29.288Z" fill="#F4980D"/>
<path d="M308.875 29L320.107 3.79997H325.867L337.135 29H331.015L321.799 6.75197H324.103L314.851 29H308.875ZM314.491 23.6L316.039 19.172H328.999L330.583 23.6H314.491Z" fill="#F4980D"/>
<path d="M348.286 36.272C346.462 36.272 344.698 36.044 342.994 35.588C341.314 35.156 339.91 34.496 338.782 33.608L341.014 29.576C341.83 30.248 342.862 30.776 344.11 31.16C345.382 31.568 346.63 31.772 347.854 31.772C349.846 31.772 351.286 31.328 352.174 30.44C353.086 29.552 353.542 28.232 353.542 26.48V23.564L353.902 18.704L353.83 13.808V9.63197H359.158V25.76C359.158 29.36 358.222 32.012 356.35 33.716C354.478 35.42 351.79 36.272 348.286 36.272ZM347.422 28.064C345.622 28.064 343.99 27.68 342.526 26.912C341.086 26.12 339.922 25.028 339.034 23.636C338.17 22.22 337.738 20.576 337.738 18.704C337.738 16.808 338.17 15.164 339.034 13.772C339.922 12.356 341.086 11.264 342.526 10.496C343.99 9.72797 345.622 9.34397 347.422 9.34397C349.054 9.34397 350.494 9.67997 351.742 10.352C352.99 11 353.962 12.02 354.658 13.412C355.354 14.78 355.702 16.544 355.702 18.704C355.702 20.84 355.354 22.604 354.658 23.996C353.962 25.364 352.99 26.384 351.742 27.056C350.494 27.728 349.054 28.064 347.422 28.064ZM348.538 23.456C349.522 23.456 350.398 23.264 351.166 22.88C351.934 22.472 352.534 21.908 352.966 21.188C353.398 20.468 353.614 19.64 353.614 18.704C353.614 17.744 353.398 16.916 352.966 16.22C352.534 15.5 351.934 14.948 351.166 14.564C350.398 14.156 349.522 13.952 348.538 13.952C347.554 13.952 346.678 14.156 345.91 14.564C345.142 14.948 344.53 15.5 344.074 16.22C343.642 16.916 343.426 17.744 343.426 18.704C343.426 19.64 343.642 20.468 344.074 21.188C344.53 21.908 345.142 22.472 345.91 22.88C346.678 23.264 347.554 23.456 348.538 23.456Z" fill="#F4980D"/>
<path d="M376.265 29V25.22L375.905 24.392V17.624C375.905 16.424 375.533 15.488 374.789 14.816C374.069 14.144 372.953 13.808 371.441 13.808C370.409 13.808 369.389 13.976 368.381 14.312C367.397 14.624 366.557 15.056 365.861 15.608L363.845 11.684C364.901 10.94 366.173 10.364 367.661 9.95597C369.149 9.54797 370.661 9.34397 372.197 9.34397C375.149 9.34397 377.441 10.04 379.073 11.432C380.705 12.824 381.521 14.996 381.521 17.948V29H376.265ZM370.361 29.288C368.849 29.288 367.553 29.036 366.473 28.532C365.393 28.004 364.565 27.296 363.989 26.408C363.413 25.52 363.125 24.524 363.125 23.42C363.125 22.268 363.401 21.26 363.953 20.396C364.529 19.532 365.429 18.86 366.653 18.38C367.877 17.876 369.473 17.624 371.441 17.624H376.589V20.9H372.053C370.733 20.9 369.821 21.116 369.317 21.548C368.837 21.98 368.597 22.52 368.597 23.168C368.597 23.888 368.873 24.464 369.425 24.896C370.001 25.304 370.781 25.508 371.765 25.508C372.701 25.508 373.541 25.292 374.285 24.86C375.029 24.404 375.569 23.744 375.905 22.88L376.769 25.472C376.361 26.72 375.617 27.668 374.537 28.316C373.457 28.964 372.065 29.288 370.361 29.288Z" fill="#F4980D"/>
<path d="M391.508 29L383.372 9.63197H389.168L395.936 26.3H393.056L400.076 9.63197H405.476L397.304 29H391.508Z" fill="#F4980D"/>
<path d="M416.852 29.288C414.644 29.288 412.7 28.856 411.02 27.992C409.364 27.128 408.08 25.952 407.168 24.464C406.256 22.952 405.8 21.236 405.8 19.316C405.8 17.372 406.244 15.656 407.132 14.168C408.044 12.656 409.28 11.48 410.84 10.64C412.4 9.77597 414.164 9.34397 416.132 9.34397C418.028 9.34397 419.732 9.75197 421.244 10.568C422.78 11.36 423.992 12.512 424.88 14.024C425.768 15.512 426.212 17.3 426.212 19.388C426.212 19.604 426.2 19.856 426.176 20.144C426.152 20.408 426.128 20.66 426.104 20.9H410.372V17.624H423.152L420.992 18.596C420.992 17.588 420.788 16.712 420.38 15.968C419.972 15.224 419.408 14.648 418.688 14.24C417.968 13.808 417.128 13.592 416.168 13.592C415.208 13.592 414.356 13.808 413.612 14.24C412.892 14.648 412.328 15.236 411.92 16.004C411.512 16.748 411.308 17.636 411.308 18.668V19.532C411.308 20.588 411.536 21.524 411.992 22.34C412.472 23.132 413.132 23.744 413.972 24.176C414.836 24.584 415.844 24.788 416.996 24.788C418.028 24.788 418.928 24.632 419.696 24.32C420.488 24.008 421.208 23.54 421.856 22.916L424.844 26.156C423.956 27.164 422.84 27.944 421.496 28.496C420.152 29.024 418.604 29.288 416.852 29.288Z" fill="#F4980D"/>
<path d="M437.231 29L448.463 3.79997H454.223L465.491 29H459.371L450.155 6.75197H452.459L443.207 29H437.231ZM442.847 23.6L444.395 19.172H457.355L458.939 23.6H442.847Z" fill="#F4980D"/>
<path d="M466.307 29V25.616L477.755 12.08L478.727 13.952H466.559V9.63197H483.263V13.016L471.815 26.552L470.807 24.68H483.587V29H466.307Z" fill="#F4980D"/>
<path d="M495.358 29.288C493.75 29.288 492.31 28.976 491.038 28.352C489.79 27.728 488.818 26.78 488.122 25.508C487.426 24.212 487.078 22.568 487.078 20.576V9.63197H492.694V19.748C492.694 21.356 493.03 22.544 493.702 23.312C494.398 24.056 495.37 24.428 496.618 24.428C497.482 24.428 498.25 24.248 498.922 23.888C499.594 23.504 500.122 22.928 500.506 22.16C500.89 21.368 501.082 20.384 501.082 19.208V9.63197H506.698V29H501.37V23.672L502.342 25.22C501.694 26.564 500.734 27.584 499.462 28.28C498.214 28.952 496.846 29.288 495.358 29.288Z" fill="#F4980D"/>
<path d="M511.901 29V2.28797H517.517V29H511.901Z" fill="#F4980D"/>
<path d="M94.7458 117V91.8H105.654C107.91 91.8 109.854 92.172 111.486 92.916C113.118 93.636 114.378 94.68 115.266 96.048C116.154 97.416 116.598 99.048 116.598 100.944C116.598 102.816 116.154 104.436 115.266 105.804C114.378 107.172 113.118 108.228 111.486 108.972C109.854 109.692 107.91 110.052 105.654 110.052H97.9858L100.578 107.424V117H94.7458ZM100.578 108.072L97.9858 105.3H105.33C107.13 105.3 108.474 104.916 109.362 104.148C110.25 103.38 110.694 102.312 110.694 100.944C110.694 99.552 110.25 98.472 109.362 97.704C108.474 96.936 107.13 96.552 105.33 96.552H97.9858L100.578 93.78V108.072Z" fill="#F4980D"/>
<path d="M120.33 117V97.632H125.694V103.104L124.938 101.52C125.514 100.152 126.438 99.12 127.71 98.424C128.982 97.704 130.53 97.344 132.354 97.344V102.528C132.114 102.504 131.898 102.492 131.706 102.492C131.514 102.468 131.31 102.456 131.094 102.456C129.558 102.456 128.31 102.9 127.35 103.788C126.414 104.652 125.946 106.008 125.946 107.856V117H120.33Z" fill="#F4980D"/>
<path d="M144.769 117.288C142.705 117.288 140.869 116.856 139.261 115.992C137.677 115.128 136.417 113.952 135.481 112.464C134.569 110.952 134.113 109.236 134.113 107.316C134.113 105.372 134.569 103.656 135.481 102.168C136.417 100.656 137.677 99.48 139.261 98.64C140.869 97.776 142.705 97.344 144.769 97.344C146.809 97.344 148.633 97.776 150.241 98.64C151.849 99.48 153.109 100.644 154.021 102.132C154.933 103.62 155.389 105.348 155.389 107.316C155.389 109.236 154.933 110.952 154.021 112.464C153.109 113.952 151.849 115.128 150.241 115.992C148.633 116.856 146.809 117.288 144.769 117.288ZM144.769 112.68C145.705 112.68 146.545 112.464 147.289 112.032C148.033 111.6 148.621 110.988 149.053 110.196C149.485 109.38 149.701 108.42 149.701 107.316C149.701 106.188 149.485 105.228 149.053 104.436C148.621 103.644 148.033 103.032 147.289 102.6C146.545 102.168 145.705 101.952 144.769 101.952C143.833 101.952 142.993 102.168 142.249 102.6C141.505 103.032 140.905 103.644 140.449 104.436C140.017 105.228 139.801 106.188 139.801 107.316C139.801 108.42 140.017 109.38 140.449 110.196C140.905 110.988 141.505 111.6 142.249 112.032C142.993 112.464 143.833 112.68 144.769 112.68Z" fill="#F4980D"/>
<path d="M167.459 117.288C165.635 117.288 163.991 116.88 162.527 116.064C161.063 115.224 159.899 114.06 159.035 112.572C158.195 111.084 157.775 109.332 157.775 107.316C157.775 105.276 158.195 103.512 159.035 102.024C159.899 100.536 161.063 99.384 162.527 98.568C163.991 97.752 165.635 97.344 167.459 97.344C169.091 97.344 170.519 97.704 171.743 98.424C172.967 99.144 173.915 100.236 174.587 101.7C175.259 103.164 175.595 105.036 175.595 107.316C175.595 109.572 175.271 111.444 174.623 112.932C173.975 114.396 173.039 115.488 171.815 116.208C170.615 116.928 169.163 117.288 167.459 117.288ZM168.431 112.68C169.343 112.68 170.171 112.464 170.915 112.032C171.659 111.6 172.247 110.988 172.679 110.196C173.135 109.38 173.363 108.42 173.363 107.316C173.363 106.188 173.135 105.228 172.679 104.436C172.247 103.644 171.659 103.032 170.915 102.6C170.171 102.168 169.343 101.952 168.431 101.952C167.495 101.952 166.655 102.168 165.911 102.6C165.167 103.032 164.567 103.644 164.111 104.436C163.679 105.228 163.463 106.188 163.463 107.316C163.463 108.42 163.679 109.38 164.111 110.196C164.567 110.988 165.167 111.6 165.911 112.032C166.655 112.464 167.495 112.68 168.431 112.68ZM173.507 117V113.04L173.615 107.28L173.255 101.556V90.288H178.871V117H173.507Z" fill="#F4980D"/>
<path d="M192.241 117.288C190.633 117.288 189.193 116.976 187.921 116.352C186.673 115.728 185.701 114.78 185.005 113.508C184.309 112.212 183.961 110.568 183.961 108.576V97.632H189.577V107.748C189.577 109.356 189.913 110.544 190.585 111.312C191.281 112.056 192.253 112.428 193.501 112.428C194.365 112.428 195.133 112.248 195.805 111.888C196.477 111.504 197.005 110.928 197.389 110.16C197.773 109.368 197.965 108.384 197.965 107.208V97.632H203.581V117H198.253V111.672L199.225 113.22C198.577 114.564 197.617 115.584 196.345 116.28C195.097 116.952 193.729 117.288 192.241 117.288Z" fill="#F4980D"/>
<path d="M218.143 117.288C216.055 117.288 214.195 116.868 212.563 116.028C210.931 115.164 209.647 113.976 208.711 112.464C207.799 110.952 207.343 109.236 207.343 107.316C207.343 105.372 207.799 103.656 208.711 102.168C209.647 100.656 210.931 99.48 212.563 98.64C214.195 97.776 216.055 97.344 218.143 97.344C220.183 97.344 221.959 97.776 223.471 98.64C224.983 99.48 226.099 100.692 226.819 102.276L222.463 104.616C221.959 103.704 221.323 103.032 220.555 102.6C219.811 102.168 218.995 101.952 218.107 101.952C217.147 101.952 216.283 102.168 215.515 102.6C214.747 103.032 214.135 103.644 213.679 104.436C213.247 105.228 213.031 106.188 213.031 107.316C213.031 108.444 213.247 109.404 213.679 110.196C214.135 110.988 214.747 111.6 215.515 112.032C216.283 112.464 217.147 112.68 218.107 112.68C218.995 112.68 219.811 112.476 220.555 112.068C221.323 111.636 221.959 110.952 222.463 110.016L226.819 112.392C226.099 113.952 224.983 115.164 223.471 116.028C221.959 116.868 220.183 117.288 218.143 117.288Z" fill="#F4980D"/>
<path d="M238.254 117.288C235.974 117.288 234.198 116.712 232.926 115.56C231.654 114.384 231.018 112.644 231.018 110.34V93.348H236.634V110.268C236.634 111.084 236.85 111.72 237.282 112.176C237.714 112.608 238.302 112.824 239.046 112.824C239.934 112.824 240.69 112.584 241.314 112.104L242.826 116.064C242.25 116.472 241.554 116.784 240.738 117C239.946 117.192 239.118 117.288 238.254 117.288ZM228.03 102.384V98.064H241.458V102.384H228.03Z" fill="#F4980D"/>
<path d="M254.597 117.288C252.533 117.288 250.697 116.856 249.089 115.992C247.505 115.128 246.245 113.952 245.309 112.464C244.397 110.952 243.941 109.236 243.941 107.316C243.941 105.372 244.397 103.656 245.309 102.168C246.245 100.656 247.505 99.48 249.089 98.64C250.697 97.776 252.533 97.344 254.597 97.344C256.637 97.344 258.461 97.776 260.069 98.64C261.677 99.48 262.937 100.644 263.849 102.132C264.761 103.62 265.217 105.348 265.217 107.316C265.217 109.236 264.761 110.952 263.849 112.464C262.937 113.952 261.677 115.128 260.069 115.992C258.461 116.856 256.637 117.288 254.597 117.288ZM254.597 112.68C255.533 112.68 256.373 112.464 257.117 112.032C257.861 111.6 258.449 110.988 258.881 110.196C259.313 109.38 259.529 108.42 259.529 107.316C259.529 106.188 259.313 105.228 258.881 104.436C258.449 103.644 257.861 103.032 257.117 102.6C256.373 102.168 255.533 101.952 254.597 101.952C253.661 101.952 252.821 102.168 252.077 102.6C251.333 103.032 250.733 103.644 250.277 104.436C249.845 105.228 249.629 106.188 249.629 107.316C249.629 108.42 249.845 109.38 250.277 110.196C250.733 110.988 251.333 111.6 252.077 112.032C252.821 112.464 253.661 112.68 254.597 112.68Z" fill="#F4980D"/>
<path d="M287.482 117.288C285.658 117.288 284.014 116.88 282.55 116.064C281.086 115.224 279.922 114.06 279.058 112.572C278.218 111.084 277.798 109.332 277.798 107.316C277.798 105.276 278.218 103.512 279.058 102.024C279.922 100.536 281.086 99.384 282.55 98.568C284.014 97.752 285.658 97.344 287.482 97.344C289.114 97.344 290.542 97.704 291.766 98.424C292.99 99.144 293.938 100.236 294.61 101.7C295.282 103.164 295.618 105.036 295.618 107.316C295.618 109.572 295.294 111.444 294.646 112.932C293.998 114.396 293.062 115.488 291.838 116.208C290.638 116.928 289.186 117.288 287.482 117.288ZM288.454 112.68C289.366 112.68 290.194 112.464 290.938 112.032C291.682 111.6 292.27 110.988 292.702 110.196C293.158 109.38 293.386 108.42 293.386 107.316C293.386 106.188 293.158 105.228 292.702 104.436C292.27 103.644 291.682 103.032 290.938 102.6C290.194 102.168 289.366 101.952 288.454 101.952C287.518 101.952 286.678 102.168 285.934 102.6C285.19 103.032 284.59 103.644 284.134 104.436C283.702 105.228 283.486 106.188 283.486 107.316C283.486 108.42 283.702 109.38 284.134 110.196C284.59 110.988 285.19 111.6 285.934 112.032C286.678 112.464 287.518 112.68 288.454 112.68ZM293.53 117V113.04L293.638 107.28L293.278 101.556V90.288H298.894V117H293.53Z" fill="#F4980D"/>
<path d="M313.704 117.288C311.496 117.288 309.552 116.856 307.872 115.992C306.216 115.128 304.932 113.952 304.02 112.464C303.108 110.952 302.652 109.236 302.652 107.316C302.652 105.372 303.096 103.656 303.984 102.168C304.896 100.656 306.132 99.48 307.692 98.64C309.252 97.776 311.016 97.344 312.984 97.344C314.88 97.344 316.584 97.752 318.096 98.568C319.632 99.36 320.844 100.512 321.732 102.024C322.62 103.512 323.064 105.3 323.064 107.388C323.064 107.604 323.052 107.856 323.028 108.144C323.004 108.408 322.98 108.66 322.956 108.9H307.224V105.624H320.004L317.844 106.596C317.844 105.588 317.64 104.712 317.232 103.968C316.824 103.224 316.26 102.648 315.54 102.24C314.82 101.808 313.98 101.592 313.02 101.592C312.06 101.592 311.208 101.808 310.464 102.24C309.744 102.648 309.18 103.236 308.772 104.004C308.364 104.748 308.16 105.636 308.16 106.668V107.532C308.16 108.588 308.388 109.524 308.844 110.34C309.324 111.132 309.984 111.744 310.824 112.176C311.688 112.584 312.696 112.788 313.848 112.788C314.88 112.788 315.78 112.632 316.548 112.32C317.34 112.008 318.06 111.54 318.708 110.916L321.696 114.156C320.808 115.164 319.692 115.944 318.348 116.496C317.004 117.024 315.456 117.288 313.704 117.288Z" fill="#F4980D"/>
<path d="M337.394 117V91.8H342.218L352.946 109.584H350.39L360.938 91.8H365.726L365.798 117H360.326L360.29 100.188H361.298L352.874 114.336H350.246L341.642 100.188H342.866V117H337.394Z" fill="#F4980D"/>
<path d="M380.993 117.288C378.785 117.288 376.841 116.856 375.161 115.992C373.505 115.128 372.221 113.952 371.309 112.464C370.397 110.952 369.941 109.236 369.941 107.316C369.941 105.372 370.385 103.656 371.273 102.168C372.185 100.656 373.421 99.48 374.981 98.64C376.541 97.776 378.305 97.344 380.273 97.344C382.169 97.344 383.873 97.752 385.385 98.568C386.921 99.36 388.133 100.512 389.021 102.024C389.909 103.512 390.353 105.3 390.353 107.388C390.353 107.604 390.341 107.856 390.317 108.144C390.293 108.408 390.269 108.66 390.245 108.9H374.513V105.624H387.293L385.133 106.596C385.133 105.588 384.929 104.712 384.521 103.968C384.113 103.224 383.549 102.648 382.829 102.24C382.109 101.808 381.269 101.592 380.309 101.592C379.349 101.592 378.497 101.808 377.753 102.24C377.033 102.648 376.469 103.236 376.061 104.004C375.653 104.748 375.449 105.636 375.449 106.668V107.532C375.449 108.588 375.677 109.524 376.133 110.34C376.613 111.132 377.273 111.744 378.113 112.176C378.977 112.584 379.985 112.788 381.137 112.788C382.169 112.788 383.069 112.632 383.837 112.32C384.629 112.008 385.349 111.54 385.997 110.916L388.985 114.156C388.097 115.164 386.981 115.944 385.637 116.496C384.293 117.024 382.745 117.288 380.993 117.288Z" fill="#F4980D"/>
<path d="M391.117 117L399.793 105.624L399.685 108.72L391.369 97.632H397.669L402.925 104.868L400.549 104.94L405.985 97.632H411.961L403.609 108.612V105.588L412.249 117H405.877L400.369 109.296L402.709 109.62L397.237 117H391.117Z" fill="#F4980D"/>
<path d="M414.975 117V97.632H420.591V117H414.975ZM417.783 94.932C416.751 94.932 415.911 94.632 415.263 94.032C414.615 93.432 414.291 92.688 414.291 91.8C414.291 90.912 414.615 90.168 415.263 89.568C415.911 88.968 416.751 88.668 417.783 88.668C418.815 88.668 419.655 88.956 420.303 89.532C420.951 90.084 421.275 90.804 421.275 91.692C421.275 92.628 420.951 93.408 420.303 94.032C419.679 94.632 418.839 94.932 417.783 94.932Z" fill="#F4980D"/>
<path d="M435.163 117.288C433.075 117.288 431.215 116.868 429.583 116.028C427.951 115.164 426.667 113.976 425.731 112.464C424.819 110.952 424.363 109.236 424.363 107.316C424.363 105.372 424.819 103.656 425.731 102.168C426.667 100.656 427.951 99.48 429.583 98.64C431.215 97.776 433.075 97.344 435.163 97.344C437.203 97.344 438.979 97.776 440.491 98.64C442.003 99.48 443.119 100.692 443.839 102.276L439.483 104.616C438.979 103.704 438.343 103.032 437.575 102.6C436.831 102.168 436.015 101.952 435.127 101.952C434.167 101.952 433.303 102.168 432.535 102.6C431.767 103.032 431.155 103.644 430.699 104.436C430.267 105.228 430.051 106.188 430.051 107.316C430.051 108.444 430.267 109.404 430.699 110.196C431.155 110.988 431.767 111.6 432.535 112.032C433.303 112.464 434.167 112.68 435.127 112.68C436.015 112.68 436.831 112.476 437.575 112.068C438.343 111.636 438.979 110.952 439.483 110.016L443.839 112.392C443.119 113.952 442.003 115.164 440.491 116.028C438.979 116.868 437.203 117.288 435.163 117.288Z" fill="#F4980D"/>
<path d="M456.042 117.288C453.978 117.288 452.142 116.856 450.534 115.992C448.95 115.128 447.69 113.952 446.754 112.464C445.842 110.952 445.386 109.236 445.386 107.316C445.386 105.372 445.842 103.656 446.754 102.168C447.69 100.656 448.95 99.48 450.534 98.64C452.142 97.776 453.978 97.344 456.042 97.344C458.082 97.344 459.906 97.776 461.514 98.64C463.122 99.48 464.382 100.644 465.294 102.132C466.206 103.62 466.662 105.348 466.662 107.316C466.662 109.236 466.206 110.952 465.294 112.464C464.382 113.952 463.122 115.128 461.514 115.992C459.906 116.856 458.082 117.288 456.042 117.288ZM456.042 112.68C456.978 112.68 457.818 112.464 458.562 112.032C459.306 111.6 459.894 110.988 460.326 110.196C460.758 109.38 460.974 108.42 460.974 107.316C460.974 106.188 460.758 105.228 460.326 104.436C459.894 103.644 459.306 103.032 458.562 102.6C457.818 102.168 456.978 101.952 456.042 101.952C455.106 101.952 454.266 102.168 453.522 102.6C452.778 103.032 452.178 103.644 451.722 104.436C451.29 105.228 451.074 106.188 451.074 107.316C451.074 108.42 451.29 109.38 451.722 110.196C452.178 110.988 452.778 111.6 453.522 112.032C454.266 112.464 455.106 112.68 456.042 112.68Z" fill="#F4980D"/>
</svg>
