<svg width="77" height="62" viewBox="0 0 77 62" fill="none" xmlns="http://www.w3.org/2000/svg">
<path d="M63.6754 14.4463C63.6754 16.5049 61.6 18.1639 59.0584 18.1639C56.5018 18.1639 54.4414 16.4928 54.4414 14.4463C54.4414 12.3877 56.5168 10.7288 59.0584 10.7288C61.6 10.7288 63.6754 12.3999 63.6754 14.4463Z" fill="white"/>
<path d="M44.0193 5.58351C52.8417 5.58351 53.8865 5.61985 57.3561 5.76519C60.5806 5.89842 62.3219 6.40711 63.4827 6.83102C65.0176 7.38816 66.1268 8.06642 67.2748 9.14436C68.4356 10.2344 69.145 11.2639 69.7383 12.7052C70.1898 13.7953 70.7315 15.4425 70.8734 18.4583C71.0281 21.7285 71.0668 22.7095 71.0668 30.9818C71.0668 39.2663 71.0281 40.2473 70.8734 43.5054C70.7315 46.5333 70.1898 48.1684 69.7383 49.2585C69.145 50.6997 68.4227 51.7414 67.2748 52.8193C66.1139 53.9094 65.0176 54.5755 63.4827 55.1326C62.3219 55.5566 60.5677 56.0652 57.3561 56.1985C53.8736 56.3438 52.8288 56.3802 44.0193 56.3802C35.197 56.3802 34.1522 56.3438 30.6826 56.1985C27.4581 56.0652 25.7168 55.5566 24.556 55.1326C23.0211 54.5755 21.9119 53.8972 20.7639 52.8193C19.6031 51.7292 18.8937 50.6997 18.3004 49.2585C17.8489 48.1684 17.3072 46.5212 17.1653 43.5054C17.0106 40.2352 16.9719 39.2542 16.9719 30.9818C16.9719 22.6974 17.0106 21.7163 17.1653 18.4583C17.3072 15.4304 17.8489 13.7953 18.3004 12.7052C18.8937 11.2639 19.616 10.2223 20.7639 9.14436C21.9248 8.05431 23.0211 7.38816 24.556 6.83102C25.7168 6.40711 27.471 5.89842 30.6826 5.76519C34.1522 5.61985 35.197 5.58351 44.0193 5.58351ZM44.0193 0C35.0551 0 33.933 0.0363352 30.4118 0.181676C26.9035 0.327017 24.4915 0.859933 22.402 1.62297C20.2222 2.42235 18.3778 3.47607 16.5462 5.20805C14.7018 6.92792 13.5796 8.6599 12.7284 10.6947C11.9158 12.6689 11.3483 14.9217 11.1935 18.2161C11.0387 21.5347 11 22.5884 11 31.0061C11 39.4237 11.0387 40.4774 11.1935 43.7839C11.3483 47.0783 11.9158 49.3432 12.7284 51.3053C13.5796 53.3522 14.7018 55.0842 16.5462 56.8041C18.3778 58.5239 20.2222 59.5898 22.3891 60.377C24.4915 61.1401 26.8906 61.673 30.3989 61.8183C33.9201 61.9637 35.0422 62 44.0064 62C52.9707 62 54.0928 61.9637 57.614 61.8183C61.1223 61.673 63.5343 61.1401 65.6238 60.377C67.7907 59.5898 69.6351 58.5239 71.4667 56.8041C73.2982 55.0842 74.4333 53.3522 75.2716 51.3174C76.0842 49.3432 76.6517 47.0904 76.8065 43.7961C76.9613 40.4896 77 39.4358 77 31.0182C77 22.6005 76.9613 21.5468 76.8065 18.2403C76.6517 14.9459 76.0842 12.681 75.2716 10.7189C74.4591 8.65989 73.3369 6.92792 71.4925 5.20805C69.6609 3.48818 67.8165 2.42235 65.6496 1.63508C63.5472 0.872045 61.1481 0.339129 57.6398 0.193788C54.1057 0.0363352 52.9836 0 44.0193 0Z" fill="#4C4C4C"/>
<path d="M44.0193 15.0791C34.6553 15.0791 27.0582 22.2129 27.0582 31.0061C27.0582 39.7992 34.6553 46.933 44.0193 46.933C53.3834 46.933 60.9805 39.7992 60.9805 31.0061C60.9805 22.2129 53.3834 15.0791 44.0193 15.0791ZM44.0193 41.3374C37.9443 41.3374 33.0172 36.7107 33.0172 31.0061C33.0172 25.3014 37.9443 20.6747 44.0193 20.6747C50.0944 20.6747 55.0215 25.3014 55.0215 31.0061C55.0215 36.7107 50.0944 41.3374 44.0193 41.3374Z" fill="#4C4C4C"/>
<path d="M65.6109 14.4492C65.6109 16.5082 63.831 18.1675 61.6512 18.1675C59.4585 18.1675 57.6914 16.4961 57.6914 14.4492C57.6914 12.3902 59.4714 10.7309 61.6512 10.7309C63.831 10.7309 65.6109 12.4023 65.6109 14.4492Z" fill="#4C4C4C"/>
</svg>
